<?xml version="1.0" encoding="utf-8" standalone="no"?>
<!DOCTYPE svg PUBLIC "-//W3C//DTD SVG 1.1//EN"
  "http://www.w3.org/Graphics/SVG/1.1/DTD/svg11.dtd">
<svg xmlns:xlink="http://www.w3.org/1999/xlink" width="872.39952pt" height="584.39952pt" viewBox="0 0 872.39952 584.39952" xmlns="http://www.w3.org/2000/svg" version="1.1">
 <metadata>
  <rdf:RDF xmlns:dc="http://purl.org/dc/elements/1.1/" xmlns:cc="http://creativecommons.org/ns#" xmlns:rdf="http://www.w3.org/1999/02/22-rdf-syntax-ns#">
   <cc:Work>
    <dc:type rdf:resource="http://purl.org/dc/dcmitype/StillImage"/>
    <dc:date>2022-08-08T16:17:12.217866</dc:date>
    <dc:format>image/svg+xml</dc:format>
    <dc:creator>
     <cc:Agent>
      <dc:title>Matplotlib v3.5.0, https://matplotlib.org/</dc:title>
     </cc:Agent>
    </dc:creator>
   </cc:Work>
  </rdf:RDF>
 </metadata>
 <defs>
  <style type="text/css">*{stroke-linejoin: round; stroke-linecap: butt}</style>
 </defs>
 <g id="figure_1">
  <g id="patch_1">
   <path d="M 0 584.39952 
L 872.39952 584.39952 
L 872.39952 0 
L 0 0 
z
" style="fill: #ffffff"/>
  </g>
  <g id="axes_1">
   <g id="patch_2">
    <path d="M 114.09 560.150145 
L 554.882886 560.150145 
L 554.882886 25.3575 
L 114.09 25.3575 
z
" style="fill: #eeeeee"/>
   </g>
   <g id="matplotlib.axis_1">
    <g id="xtick_1">
     <g id="line2d_1">
      <path d="M 181.403001 560.150145 
L 181.403001 25.3575 
" clip-path="url(#p7b2fdb9874)" style="fill: none; stroke-dasharray: 1.85,0.8; stroke-dashoffset: 0; stroke: #b2b2b2; stroke-width: 0.5"/>
     </g>
     <g id="line2d_2">
      <defs>
       <path id="md9bdda20f7" d="M 0 0 
L 0 -3.5 
" style="stroke: #000000; stroke-width: 0.8"/>
      </defs>
      <g>
       <use xlink:href="#md9bdda20f7" x="181.403001" y="560.150145" style="stroke: #000000; stroke-width: 0.8"/>
      </g>
     </g>
     <g id="text_1">
      <!-- 0 -->
      <g transform="translate(176.949251 574.287957)scale(0.14 -0.14)">
       <defs>
        <path id="DejaVuSans-30" d="M 2034 4250 
Q 1547 4250 1301 3770 
Q 1056 3291 1056 2328 
Q 1056 1369 1301 889 
Q 1547 409 2034 409 
Q 2525 409 2770 889 
Q 3016 1369 3016 2328 
Q 3016 3291 2770 3770 
Q 2525 4250 2034 4250 
z
M 2034 4750 
Q 2819 4750 3233 4129 
Q 3647 3509 3647 2328 
Q 3647 1150 3233 529 
Q 2819 -91 2034 -91 
Q 1250 -91 836 529 
Q 422 1150 422 2328 
Q 422 3509 836 4129 
Q 1250 4750 2034 4750 
z
" transform="scale(0.015625)"/>
       </defs>
       <use xlink:href="#DejaVuSans-30"/>
      </g>
     </g>
    </g>
    <g id="xtick_2">
     <g id="line2d_3">
      <path d="M 248.96808 560.150145 
L 248.96808 25.3575 
" clip-path="url(#p7b2fdb9874)" style="fill: none; stroke-dasharray: 1.85,0.8; stroke-dashoffset: 0; stroke: #b2b2b2; stroke-width: 0.5"/>
     </g>
     <g id="line2d_4">
      <g>
       <use xlink:href="#md9bdda20f7" x="248.96808" y="560.150145" style="stroke: #000000; stroke-width: 0.8"/>
      </g>
     </g>
     <g id="text_2">
      <!-- 1 -->
      <g transform="translate(244.51433 574.287957)scale(0.14 -0.14)">
       <defs>
        <path id="DejaVuSans-31" d="M 794 531 
L 1825 531 
L 1825 4091 
L 703 3866 
L 703 4441 
L 1819 4666 
L 2450 4666 
L 2450 531 
L 3481 531 
L 3481 0 
L 794 0 
L 794 531 
z
" transform="scale(0.015625)"/>
       </defs>
       <use xlink:href="#DejaVuSans-31"/>
      </g>
     </g>
    </g>
    <g id="xtick_3">
     <g id="line2d_5">
      <path d="M 316.533158 560.150145 
L 316.533158 25.3575 
" clip-path="url(#p7b2fdb9874)" style="fill: none; stroke-dasharray: 1.85,0.8; stroke-dashoffset: 0; stroke: #b2b2b2; stroke-width: 0.5"/>
     </g>
     <g id="line2d_6">
      <g>
       <use xlink:href="#md9bdda20f7" x="316.533158" y="560.150145" style="stroke: #000000; stroke-width: 0.8"/>
      </g>
     </g>
     <g id="text_3">
      <!-- 2 -->
      <g transform="translate(312.079408 574.287957)scale(0.14 -0.14)">
       <defs>
        <path id="DejaVuSans-32" d="M 1228 531 
L 3431 531 
L 3431 0 
L 469 0 
L 469 531 
Q 828 903 1448 1529 
Q 2069 2156 2228 2338 
Q 2531 2678 2651 2914 
Q 2772 3150 2772 3378 
Q 2772 3750 2511 3984 
Q 2250 4219 1831 4219 
Q 1534 4219 1204 4116 
Q 875 4013 500 3803 
L 500 4441 
Q 881 4594 1212 4672 
Q 1544 4750 1819 4750 
Q 2544 4750 2975 4387 
Q 3406 4025 3406 3419 
Q 3406 3131 3298 2873 
Q 3191 2616 2906 2266 
Q 2828 2175 2409 1742 
Q 1991 1309 1228 531 
z
" transform="scale(0.015625)"/>
       </defs>
       <use xlink:href="#DejaVuSans-32"/>
      </g>
     </g>
    </g>
    <g id="xtick_4">
     <g id="line2d_7">
      <path d="M 384.098237 560.150145 
L 384.098237 25.3575 
" clip-path="url(#p7b2fdb9874)" style="fill: none; stroke-dasharray: 1.85,0.8; stroke-dashoffset: 0; stroke: #b2b2b2; stroke-width: 0.5"/>
     </g>
     <g id="line2d_8">
      <g>
       <use xlink:href="#md9bdda20f7" x="384.098237" y="560.150145" style="stroke: #000000; stroke-width: 0.8"/>
      </g>
     </g>
     <g id="text_4">
      <!-- 3 -->
      <g transform="translate(379.644487 574.287957)scale(0.14 -0.14)">
       <defs>
        <path id="DejaVuSans-33" d="M 2597 2516 
Q 3050 2419 3304 2112 
Q 3559 1806 3559 1356 
Q 3559 666 3084 287 
Q 2609 -91 1734 -91 
Q 1441 -91 1130 -33 
Q 819 25 488 141 
L 488 750 
Q 750 597 1062 519 
Q 1375 441 1716 441 
Q 2309 441 2620 675 
Q 2931 909 2931 1356 
Q 2931 1769 2642 2001 
Q 2353 2234 1838 2234 
L 1294 2234 
L 1294 2753 
L 1863 2753 
Q 2328 2753 2575 2939 
Q 2822 3125 2822 3475 
Q 2822 3834 2567 4026 
Q 2313 4219 1838 4219 
Q 1578 4219 1281 4162 
Q 984 4106 628 3988 
L 628 4550 
Q 988 4650 1302 4700 
Q 1616 4750 1894 4750 
Q 2613 4750 3031 4423 
Q 3450 4097 3450 3541 
Q 3450 3153 3228 2886 
Q 3006 2619 2597 2516 
z
" transform="scale(0.015625)"/>
       </defs>
       <use xlink:href="#DejaVuSans-33"/>
      </g>
     </g>
    </g>
    <g id="xtick_5">
     <g id="line2d_9">
      <path d="M 451.663316 560.150145 
L 451.663316 25.3575 
" clip-path="url(#p7b2fdb9874)" style="fill: none; stroke-dasharray: 1.85,0.8; stroke-dashoffset: 0; stroke: #b2b2b2; stroke-width: 0.5"/>
     </g>
     <g id="line2d_10">
      <g>
       <use xlink:href="#md9bdda20f7" x="451.663316" y="560.150145" style="stroke: #000000; stroke-width: 0.8"/>
      </g>
     </g>
     <g id="text_5">
      <!-- 4 -->
      <g transform="translate(447.209566 574.287957)scale(0.14 -0.14)">
       <defs>
        <path id="DejaVuSans-34" d="M 2419 4116 
L 825 1625 
L 2419 1625 
L 2419 4116 
z
M 2253 4666 
L 3047 4666 
L 3047 1625 
L 3713 1625 
L 3713 1100 
L 3047 1100 
L 3047 0 
L 2419 0 
L 2419 1100 
L 313 1100 
L 313 1709 
L 2253 4666 
z
" transform="scale(0.015625)"/>
       </defs>
       <use xlink:href="#DejaVuSans-34"/>
      </g>
     </g>
    </g>
    <g id="xtick_6">
     <g id="line2d_11">
      <path d="M 519.228394 560.150145 
L 519.228394 25.3575 
" clip-path="url(#p7b2fdb9874)" style="fill: none; stroke-dasharray: 1.85,0.8; stroke-dashoffset: 0; stroke: #b2b2b2; stroke-width: 0.5"/>
     </g>
     <g id="line2d_12">
      <g>
       <use xlink:href="#md9bdda20f7" x="519.228394" y="560.150145" style="stroke: #000000; stroke-width: 0.8"/>
      </g>
     </g>
     <g id="text_6">
      <!-- 5 -->
      <g transform="translate(514.774644 574.287957)scale(0.14 -0.14)">
       <defs>
        <path id="DejaVuSans-35" d="M 691 4666 
L 3169 4666 
L 3169 4134 
L 1269 4134 
L 1269 2991 
Q 1406 3038 1543 3061 
Q 1681 3084 1819 3084 
Q 2600 3084 3056 2656 
Q 3513 2228 3513 1497 
Q 3513 744 3044 326 
Q 2575 -91 1722 -91 
Q 1428 -91 1123 -41 
Q 819 9 494 109 
L 494 744 
Q 775 591 1075 516 
Q 1375 441 1709 441 
Q 2250 441 2565 725 
Q 2881 1009 2881 1497 
Q 2881 1984 2565 2268 
Q 2250 2553 1709 2553 
Q 1456 2553 1204 2497 
Q 953 2441 691 2322 
L 691 4666 
z
" transform="scale(0.015625)"/>
       </defs>
       <use xlink:href="#DejaVuSans-35"/>
      </g>
     </g>
    </g>
   </g>
   <g id="matplotlib.axis_2">
    <g id="ytick_1">
     <g id="text_7">
      <!-- day_of_week 6 -->
      <g transform="translate(7.2 527.269577)scale(0.14 -0.14)">
       <defs>
        <path id="DejaVuSans-64" d="M 2906 2969 
L 2906 4863 
L 3481 4863 
L 3481 0 
L 2906 0 
L 2906 525 
Q 2725 213 2448 61 
Q 2172 -91 1784 -91 
Q 1150 -91 751 415 
Q 353 922 353 1747 
Q 353 2572 751 3078 
Q 1150 3584 1784 3584 
Q 2172 3584 2448 3432 
Q 2725 3281 2906 2969 
z
M 947 1747 
Q 947 1113 1208 752 
Q 1469 391 1925 391 
Q 2381 391 2643 752 
Q 2906 1113 2906 1747 
Q 2906 2381 2643 2742 
Q 2381 3103 1925 3103 
Q 1469 3103 1208 2742 
Q 947 2381 947 1747 
z
" transform="scale(0.015625)"/>
        <path id="DejaVuSans-61" d="M 2194 1759 
Q 1497 1759 1228 1600 
Q 959 1441 959 1056 
Q 959 750 1161 570 
Q 1363 391 1709 391 
Q 2188 391 2477 730 
Q 2766 1069 2766 1631 
L 2766 1759 
L 2194 1759 
z
M 3341 1997 
L 3341 0 
L 2766 0 
L 2766 531 
Q 2569 213 2275 61 
Q 1981 -91 1556 -91 
Q 1019 -91 701 211 
Q 384 513 384 1019 
Q 384 1609 779 1909 
Q 1175 2209 1959 2209 
L 2766 2209 
L 2766 2266 
Q 2766 2663 2505 2880 
Q 2244 3097 1772 3097 
Q 1472 3097 1187 3025 
Q 903 2953 641 2809 
L 641 3341 
Q 956 3463 1253 3523 
Q 1550 3584 1831 3584 
Q 2591 3584 2966 3190 
Q 3341 2797 3341 1997 
z
" transform="scale(0.015625)"/>
        <path id="DejaVuSans-79" d="M 2059 -325 
Q 1816 -950 1584 -1140 
Q 1353 -1331 966 -1331 
L 506 -1331 
L 506 -850 
L 844 -850 
Q 1081 -850 1212 -737 
Q 1344 -625 1503 -206 
L 1606 56 
L 191 3500 
L 800 3500 
L 1894 763 
L 2988 3500 
L 3597 3500 
L 2059 -325 
z
" transform="scale(0.015625)"/>
        <path id="DejaVuSans-5f" d="M 3263 -1063 
L 3263 -1509 
L -63 -1509 
L -63 -1063 
L 3263 -1063 
z
" transform="scale(0.015625)"/>
        <path id="DejaVuSans-6f" d="M 1959 3097 
Q 1497 3097 1228 2736 
Q 959 2375 959 1747 
Q 959 1119 1226 758 
Q 1494 397 1959 397 
Q 2419 397 2687 759 
Q 2956 1122 2956 1747 
Q 2956 2369 2687 2733 
Q 2419 3097 1959 3097 
z
M 1959 3584 
Q 2709 3584 3137 3096 
Q 3566 2609 3566 1747 
Q 3566 888 3137 398 
Q 2709 -91 1959 -91 
Q 1206 -91 779 398 
Q 353 888 353 1747 
Q 353 2609 779 3096 
Q 1206 3584 1959 3584 
z
" transform="scale(0.015625)"/>
        <path id="DejaVuSans-66" d="M 2375 4863 
L 2375 4384 
L 1825 4384 
Q 1516 4384 1395 4259 
Q 1275 4134 1275 3809 
L 1275 3500 
L 2222 3500 
L 2222 3053 
L 1275 3053 
L 1275 0 
L 697 0 
L 697 3053 
L 147 3053 
L 147 3500 
L 697 3500 
L 697 3744 
Q 697 4328 969 4595 
Q 1241 4863 1831 4863 
L 2375 4863 
z
" transform="scale(0.015625)"/>
        <path id="DejaVuSans-77" d="M 269 3500 
L 844 3500 
L 1563 769 
L 2278 3500 
L 2956 3500 
L 3675 769 
L 4391 3500 
L 4966 3500 
L 4050 0 
L 3372 0 
L 2619 2869 
L 1863 0 
L 1184 0 
L 269 3500 
z
" transform="scale(0.015625)"/>
        <path id="DejaVuSans-65" d="M 3597 1894 
L 3597 1613 
L 953 1613 
Q 991 1019 1311 708 
Q 1631 397 2203 397 
Q 2534 397 2845 478 
Q 3156 559 3463 722 
L 3463 178 
Q 3153 47 2828 -22 
Q 2503 -91 2169 -91 
Q 1331 -91 842 396 
Q 353 884 353 1716 
Q 353 2575 817 3079 
Q 1281 3584 2069 3584 
Q 2775 3584 3186 3129 
Q 3597 2675 3597 1894 
z
M 3022 2063 
Q 3016 2534 2758 2815 
Q 2500 3097 2075 3097 
Q 1594 3097 1305 2825 
Q 1016 2553 972 2059 
L 3022 2063 
z
" transform="scale(0.015625)"/>
        <path id="DejaVuSans-6b" d="M 581 4863 
L 1159 4863 
L 1159 1991 
L 2875 3500 
L 3609 3500 
L 1753 1863 
L 3688 0 
L 2938 0 
L 1159 1709 
L 1159 0 
L 581 0 
L 581 4863 
z
" transform="scale(0.015625)"/>
        <path id="DejaVuSans-20" transform="scale(0.015625)"/>
        <path id="DejaVuSans-36" d="M 2113 2584 
Q 1688 2584 1439 2293 
Q 1191 2003 1191 1497 
Q 1191 994 1439 701 
Q 1688 409 2113 409 
Q 2538 409 2786 701 
Q 3034 994 3034 1497 
Q 3034 2003 2786 2293 
Q 2538 2584 2113 2584 
z
M 3366 4563 
L 3366 3988 
Q 3128 4100 2886 4159 
Q 2644 4219 2406 4219 
Q 1781 4219 1451 3797 
Q 1122 3375 1075 2522 
Q 1259 2794 1537 2939 
Q 1816 3084 2150 3084 
Q 2853 3084 3261 2657 
Q 3669 2231 3669 1497 
Q 3669 778 3244 343 
Q 2819 -91 2113 -91 
Q 1303 -91 875 529 
Q 447 1150 447 2328 
Q 447 3434 972 4092 
Q 1497 4750 2381 4750 
Q 2619 4750 2861 4703 
Q 3103 4656 3366 4563 
z
" transform="scale(0.015625)"/>
       </defs>
       <use xlink:href="#DejaVuSans-64"/>
       <use xlink:href="#DejaVuSans-61" x="63.476562"/>
       <use xlink:href="#DejaVuSans-79" x="124.755859"/>
       <use xlink:href="#DejaVuSans-5f" x="183.935547"/>
       <use xlink:href="#DejaVuSans-6f" x="233.935547"/>
       <use xlink:href="#DejaVuSans-66" x="295.117188"/>
       <use xlink:href="#DejaVuSans-5f" x="330.322266"/>
       <use xlink:href="#DejaVuSans-77" x="380.322266"/>
       <use xlink:href="#DejaVuSans-65" x="462.109375"/>
       <use xlink:href="#DejaVuSans-65" x="523.632812"/>
       <use xlink:href="#DejaVuSans-6b" x="585.15625"/>
       <use xlink:href="#DejaVuSans-20" x="643.066406"/>
       <use xlink:href="#DejaVuSans-36" x="674.853516"/>
      </g>
     </g>
    </g>
    <g id="ytick_2">
     <g id="text_8">
      <!-- day_of_week 5 -->
      <g transform="translate(7.2 457.237206)scale(0.14 -0.14)">
       <use xlink:href="#DejaVuSans-64"/>
       <use xlink:href="#DejaVuSans-61" x="63.476562"/>
       <use xlink:href="#DejaVuSans-79" x="124.755859"/>
       <use xlink:href="#DejaVuSans-5f" x="183.935547"/>
       <use xlink:href="#DejaVuSans-6f" x="233.935547"/>
       <use xlink:href="#DejaVuSans-66" x="295.117188"/>
       <use xlink:href="#DejaVuSans-5f" x="330.322266"/>
       <use xlink:href="#DejaVuSans-77" x="380.322266"/>
       <use xlink:href="#DejaVuSans-65" x="462.109375"/>
       <use xlink:href="#DejaVuSans-65" x="523.632812"/>
       <use xlink:href="#DejaVuSans-6b" x="585.15625"/>
       <use xlink:href="#DejaVuSans-20" x="643.066406"/>
       <use xlink:href="#DejaVuSans-35" x="674.853516"/>
      </g>
     </g>
    </g>
    <g id="ytick_3">
     <g id="text_9">
      <!-- day_of_week 4 -->
      <g transform="translate(7.2 387.204836)scale(0.14 -0.14)">
       <use xlink:href="#DejaVuSans-64"/>
       <use xlink:href="#DejaVuSans-61" x="63.476562"/>
       <use xlink:href="#DejaVuSans-79" x="124.755859"/>
       <use xlink:href="#DejaVuSans-5f" x="183.935547"/>
       <use xlink:href="#DejaVuSans-6f" x="233.935547"/>
       <use xlink:href="#DejaVuSans-66" x="295.117188"/>
       <use xlink:href="#DejaVuSans-5f" x="330.322266"/>
       <use xlink:href="#DejaVuSans-77" x="380.322266"/>
       <use xlink:href="#DejaVuSans-65" x="462.109375"/>
       <use xlink:href="#DejaVuSans-65" x="523.632812"/>
       <use xlink:href="#DejaVuSans-6b" x="585.15625"/>
       <use xlink:href="#DejaVuSans-20" x="643.066406"/>
       <use xlink:href="#DejaVuSans-34" x="674.853516"/>
      </g>
     </g>
    </g>
    <g id="ytick_4">
     <g id="text_10">
      <!-- day_of_week 3 -->
      <g transform="translate(7.2 317.172466)scale(0.14 -0.14)">
       <use xlink:href="#DejaVuSans-64"/>
       <use xlink:href="#DejaVuSans-61" x="63.476562"/>
       <use xlink:href="#DejaVuSans-79" x="124.755859"/>
       <use xlink:href="#DejaVuSans-5f" x="183.935547"/>
       <use xlink:href="#DejaVuSans-6f" x="233.935547"/>
       <use xlink:href="#DejaVuSans-66" x="295.117188"/>
       <use xlink:href="#DejaVuSans-5f" x="330.322266"/>
       <use xlink:href="#DejaVuSans-77" x="380.322266"/>
       <use xlink:href="#DejaVuSans-65" x="462.109375"/>
       <use xlink:href="#DejaVuSans-65" x="523.632812"/>
       <use xlink:href="#DejaVuSans-6b" x="585.15625"/>
       <use xlink:href="#DejaVuSans-20" x="643.066406"/>
       <use xlink:href="#DejaVuSans-33" x="674.853516"/>
      </g>
     </g>
    </g>
    <g id="ytick_5">
     <g id="text_11">
      <!-- day_of_week 2 -->
      <g transform="translate(7.2 247.140096)scale(0.14 -0.14)">
       <use xlink:href="#DejaVuSans-64"/>
       <use xlink:href="#DejaVuSans-61" x="63.476562"/>
       <use xlink:href="#DejaVuSans-79" x="124.755859"/>
       <use xlink:href="#DejaVuSans-5f" x="183.935547"/>
       <use xlink:href="#DejaVuSans-6f" x="233.935547"/>
       <use xlink:href="#DejaVuSans-66" x="295.117188"/>
       <use xlink:href="#DejaVuSans-5f" x="330.322266"/>
       <use xlink:href="#DejaVuSans-77" x="380.322266"/>
       <use xlink:href="#DejaVuSans-65" x="462.109375"/>
       <use xlink:href="#DejaVuSans-65" x="523.632812"/>
       <use xlink:href="#DejaVuSans-6b" x="585.15625"/>
       <use xlink:href="#DejaVuSans-20" x="643.066406"/>
       <use xlink:href="#DejaVuSans-32" x="674.853516"/>
      </g>
     </g>
    </g>
    <g id="ytick_6">
     <g id="text_12">
      <!-- day_of_week 1 -->
      <g transform="translate(7.2 177.107726)scale(0.14 -0.14)">
       <use xlink:href="#DejaVuSans-64"/>
       <use xlink:href="#DejaVuSans-61" x="63.476562"/>
       <use xlink:href="#DejaVuSans-79" x="124.755859"/>
       <use xlink:href="#DejaVuSans-5f" x="183.935547"/>
       <use xlink:href="#DejaVuSans-6f" x="233.935547"/>
       <use xlink:href="#DejaVuSans-66" x="295.117188"/>
       <use xlink:href="#DejaVuSans-5f" x="330.322266"/>
       <use xlink:href="#DejaVuSans-77" x="380.322266"/>
       <use xlink:href="#DejaVuSans-65" x="462.109375"/>
       <use xlink:href="#DejaVuSans-65" x="523.632812"/>
       <use xlink:href="#DejaVuSans-6b" x="585.15625"/>
       <use xlink:href="#DejaVuSans-20" x="643.066406"/>
       <use xlink:href="#DejaVuSans-31" x="674.853516"/>
      </g>
     </g>
    </g>
    <g id="ytick_7">
     <g id="text_13">
      <!-- day_of_week 0 -->
      <g transform="translate(7.2 107.075356)scale(0.14 -0.14)">
       <use xlink:href="#DejaVuSans-64"/>
       <use xlink:href="#DejaVuSans-61" x="63.476562"/>
       <use xlink:href="#DejaVuSans-79" x="124.755859"/>
       <use xlink:href="#DejaVuSans-5f" x="183.935547"/>
       <use xlink:href="#DejaVuSans-6f" x="233.935547"/>
       <use xlink:href="#DejaVuSans-66" x="295.117188"/>
       <use xlink:href="#DejaVuSans-5f" x="330.322266"/>
       <use xlink:href="#DejaVuSans-77" x="380.322266"/>
       <use xlink:href="#DejaVuSans-65" x="462.109375"/>
       <use xlink:href="#DejaVuSans-65" x="523.632812"/>
       <use xlink:href="#DejaVuSans-6b" x="585.15625"/>
       <use xlink:href="#DejaVuSans-20" x="643.066406"/>
       <use xlink:href="#DejaVuSans-30" x="674.853516"/>
      </g>
     </g>
    </g>
   </g>
   <g id="LineCollection_1">
    <path d="M 388.727833 521.95067 
L 474.956436 521.95067 
" clip-path="url(#p7b2fdb9874)" style="fill: none; stroke: #348abd; stroke-width: 4"/>
   </g>
   <g id="LineCollection_2">
    <path d="M 427.382345 521.95067 
L 448.743678 521.95067 
" clip-path="url(#p7b2fdb9874)" style="fill: none; stroke: #348abd; stroke-width: 8"/>
   </g>
   <g id="line2d_13">
    <defs>
     <path id="m4f44ec40b0" d="M 0 2.25 
C 0.596707 2.25 1.169055 2.012926 1.59099 1.59099 
C 2.012926 1.169055 2.25 0.596707 2.25 0 
C 2.25 -0.596707 2.012926 -1.169055 1.59099 -1.59099 
C 1.169055 -2.012926 0.596707 -2.25 0 -2.25 
C -0.596707 -2.25 -1.169055 -2.012926 -1.59099 -1.59099 
C -2.012926 -1.169055 -2.25 -0.596707 -2.25 0 
C -2.25 0.596707 -2.012926 1.169055 -1.59099 1.59099 
C -1.169055 2.012926 -0.596707 2.25 0 2.25 
z
" style="stroke: #348abd"/>
    </defs>
    <g clip-path="url(#p7b2fdb9874)">
     <use xlink:href="#m4f44ec40b0" x="439.462654" y="521.95067" style="fill: #eeeeee; stroke: #348abd"/>
    </g>
   </g>
   <g id="LineCollection_3">
    <path d="M 134.12604 451.9183 
L 411.01836 451.9183 
" clip-path="url(#p7b2fdb9874)" style="fill: none; stroke: #348abd; stroke-width: 4"/>
   </g>
   <g id="LineCollection_4">
    <path d="M 233.417007 451.9183 
L 337.695105 451.9183 
" clip-path="url(#p7b2fdb9874)" style="fill: none; stroke: #348abd; stroke-width: 8"/>
   </g>
   <g id="line2d_14">
    <g clip-path="url(#p7b2fdb9874)">
     <use xlink:href="#m4f44ec40b0" x="291.534051" y="451.9183" style="fill: #eeeeee; stroke: #348abd"/>
    </g>
   </g>
   <g id="LineCollection_5">
    <path d="M 257.490288 381.88593 
L 471.379419 381.88593 
" clip-path="url(#p7b2fdb9874)" style="fill: none; stroke: #348abd; stroke-width: 4"/>
   </g>
   <g id="LineCollection_6">
    <path d="M 384.565802 381.88593 
L 442.044378 381.88593 
" clip-path="url(#p7b2fdb9874)" style="fill: none; stroke: #348abd; stroke-width: 8"/>
   </g>
   <g id="line2d_15">
    <g clip-path="url(#p7b2fdb9874)">
     <use xlink:href="#m4f44ec40b0" x="424.19241" y="381.88593" style="fill: #eeeeee; stroke: #348abd"/>
    </g>
   </g>
   <g id="LineCollection_7">
    <path d="M 337.946031 311.85356 
L 477.941359 311.85356 
" clip-path="url(#p7b2fdb9874)" style="fill: none; stroke: #348abd; stroke-width: 4"/>
   </g>
   <g id="LineCollection_8">
    <path d="M 414.830734 311.85356 
L 449.447353 311.85356 
" clip-path="url(#p7b2fdb9874)" style="fill: none; stroke: #348abd; stroke-width: 8"/>
   </g>
   <g id="line2d_16">
    <g clip-path="url(#p7b2fdb9874)">
     <use xlink:href="#m4f44ec40b0" x="436.11882" y="311.85356" style="fill: #eeeeee; stroke: #348abd"/>
    </g>
   </g>
   <g id="LineCollection_9">
    <path d="M 398.695859 241.82119 
L 495.700247 241.82119 
" clip-path="url(#p7b2fdb9874)" style="fill: none; stroke: #348abd; stroke-width: 4"/>
   </g>
   <g id="LineCollection_10">
    <path d="M 441.770384 241.82119 
L 466.231 241.82119 
" clip-path="url(#p7b2fdb9874)" style="fill: none; stroke: #348abd; stroke-width: 8"/>
   </g>
   <g id="line2d_17">
    <g clip-path="url(#p7b2fdb9874)">
     <use xlink:href="#m4f44ec40b0" x="455.588669" y="241.82119" style="fill: #eeeeee; stroke: #348abd"/>
    </g>
   </g>
   <g id="LineCollection_11">
    <path d="M 451.097382 171.788819 
L 510.70824 171.788819 
" clip-path="url(#p7b2fdb9874)" style="fill: none; stroke: #348abd; stroke-width: 4"/>
   </g>
   <g id="LineCollection_12">
    <path d="M 469.032951 171.788819 
L 487.994327 171.788819 
" clip-path="url(#p7b2fdb9874)" style="fill: none; stroke: #348abd; stroke-width: 8"/>
   </g>
   <g id="line2d_18">
    <g clip-path="url(#p7b2fdb9874)">
     <use xlink:href="#m4f44ec40b0" x="478.165658" y="171.788819" style="fill: #eeeeee; stroke: #348abd"/>
    </g>
   </g>
   <g id="LineCollection_13">
    <path d="M 467.227255 101.756449 
L 534.846846 101.756449 
" clip-path="url(#p7b2fdb9874)" style="fill: none; stroke: #348abd; stroke-width: 4"/>
   </g>
   <g id="LineCollection_14">
    <path d="M 486.035831 101.756449 
L 510.299698 101.756449 
" clip-path="url(#p7b2fdb9874)" style="fill: none; stroke: #348abd; stroke-width: 8"/>
   </g>
   <g id="line2d_19">
    <g clip-path="url(#p7b2fdb9874)">
     <use xlink:href="#m4f44ec40b0" x="497.16447" y="101.756449" style="fill: #eeeeee; stroke: #348abd"/>
    </g>
   </g>
   <g id="patch_3">
    <path d="M 114.09 560.150145 
L 554.882886 560.150145 
" style="fill: none; stroke: #bcbcbc; stroke-width: 0.8; stroke-linejoin: miter; stroke-linecap: square"/>
   </g>
   <g id="patch_4">
    <path d="M 114.09 25.3575 
L 554.882886 25.3575 
" style="fill: none; stroke: #bcbcbc; stroke-width: 0.8; stroke-linejoin: miter; stroke-linecap: square"/>
   </g>
   <g id="text_14">
    <!-- 94.0% HDI -->
    <g transform="translate(291.993943 19.3575)scale(0.16 -0.16)">
     <defs>
      <path id="DejaVuSans-39" d="M 703 97 
L 703 672 
Q 941 559 1184 500 
Q 1428 441 1663 441 
Q 2288 441 2617 861 
Q 2947 1281 2994 2138 
Q 2813 1869 2534 1725 
Q 2256 1581 1919 1581 
Q 1219 1581 811 2004 
Q 403 2428 403 3163 
Q 403 3881 828 4315 
Q 1253 4750 1959 4750 
Q 2769 4750 3195 4129 
Q 3622 3509 3622 2328 
Q 3622 1225 3098 567 
Q 2575 -91 1691 -91 
Q 1453 -91 1209 -44 
Q 966 3 703 97 
z
M 1959 2075 
Q 2384 2075 2632 2365 
Q 2881 2656 2881 3163 
Q 2881 3666 2632 3958 
Q 2384 4250 1959 4250 
Q 1534 4250 1286 3958 
Q 1038 3666 1038 3163 
Q 1038 2656 1286 2365 
Q 1534 2075 1959 2075 
z
" transform="scale(0.015625)"/>
      <path id="DejaVuSans-2e" d="M 684 794 
L 1344 794 
L 1344 0 
L 684 0 
L 684 794 
z
" transform="scale(0.015625)"/>
      <path id="DejaVuSans-25" d="M 4653 2053 
Q 4381 2053 4226 1822 
Q 4072 1591 4072 1178 
Q 4072 772 4226 539 
Q 4381 306 4653 306 
Q 4919 306 5073 539 
Q 5228 772 5228 1178 
Q 5228 1588 5073 1820 
Q 4919 2053 4653 2053 
z
M 4653 2450 
Q 5147 2450 5437 2106 
Q 5728 1763 5728 1178 
Q 5728 594 5436 251 
Q 5144 -91 4653 -91 
Q 4153 -91 3862 251 
Q 3572 594 3572 1178 
Q 3572 1766 3864 2108 
Q 4156 2450 4653 2450 
z
M 1428 4353 
Q 1159 4353 1004 4120 
Q 850 3888 850 3481 
Q 850 3069 1003 2837 
Q 1156 2606 1428 2606 
Q 1700 2606 1854 2837 
Q 2009 3069 2009 3481 
Q 2009 3884 1853 4118 
Q 1697 4353 1428 4353 
z
M 4250 4750 
L 4750 4750 
L 1831 -91 
L 1331 -91 
L 4250 4750 
z
M 1428 4750 
Q 1922 4750 2215 4408 
Q 2509 4066 2509 3481 
Q 2509 2891 2217 2550 
Q 1925 2209 1428 2209 
Q 931 2209 642 2551 
Q 353 2894 353 3481 
Q 353 4063 643 4406 
Q 934 4750 1428 4750 
z
" transform="scale(0.015625)"/>
      <path id="DejaVuSans-48" d="M 628 4666 
L 1259 4666 
L 1259 2753 
L 3553 2753 
L 3553 4666 
L 4184 4666 
L 4184 0 
L 3553 0 
L 3553 2222 
L 1259 2222 
L 1259 0 
L 628 0 
L 628 4666 
z
" transform="scale(0.015625)"/>
      <path id="DejaVuSans-44" d="M 1259 4147 
L 1259 519 
L 2022 519 
Q 2988 519 3436 956 
Q 3884 1394 3884 2338 
Q 3884 3275 3436 3711 
Q 2988 4147 2022 4147 
L 1259 4147 
z
M 628 4666 
L 1925 4666 
Q 3281 4666 3915 4102 
Q 4550 3538 4550 2338 
Q 4550 1131 3912 565 
Q 3275 0 1925 0 
L 628 0 
L 628 4666 
z
" transform="scale(0.015625)"/>
      <path id="DejaVuSans-49" d="M 628 4666 
L 1259 4666 
L 1259 0 
L 628 0 
L 628 4666 
z
" transform="scale(0.015625)"/>
     </defs>
     <use xlink:href="#DejaVuSans-39"/>
     <use xlink:href="#DejaVuSans-34" x="63.623047"/>
     <use xlink:href="#DejaVuSans-2e" x="127.246094"/>
     <use xlink:href="#DejaVuSans-30" x="159.033203"/>
     <use xlink:href="#DejaVuSans-25" x="222.65625"/>
     <use xlink:href="#DejaVuSans-20" x="317.675781"/>
     <use xlink:href="#DejaVuSans-48" x="349.462891"/>
     <use xlink:href="#DejaVuSans-44" x="424.658203"/>
     <use xlink:href="#DejaVuSans-49" x="501.660156"/>
    </g>
   </g>
  </g>
  <g id="axes_2">
   <g id="patch_5">
    <path d="M 565.337116 560.150145 
L 712.268078 560.150145 
L 712.268078 25.3575 
L 565.337116 25.3575 
z
" style="fill: #eeeeee"/>
   </g>
   <g id="matplotlib.axis_3">
    <g id="xtick_7">
     <g id="line2d_20">
      <path d="M 565.337116 560.150145 
L 565.337116 25.3575 
" clip-path="url(#p35650b0f24)" style="fill: none; stroke-dasharray: 1.85,0.8; stroke-dashoffset: 0; stroke: #b2b2b2; stroke-width: 0.5"/>
     </g>
     <g id="line2d_21">
      <g>
       <use xlink:href="#md9bdda20f7" x="565.337116" y="560.150145" style="stroke: #000000; stroke-width: 0.8"/>
      </g>
     </g>
     <g id="text_15">
      <!-- 0 -->
      <g transform="translate(560.883366 574.287957)scale(0.14 -0.14)">
       <use xlink:href="#DejaVuSans-30"/>
      </g>
     </g>
    </g>
    <g id="xtick_8">
     <g id="line2d_22">
      <path d="M 615.029047 560.150145 
L 615.029047 25.3575 
" clip-path="url(#p35650b0f24)" style="fill: none; stroke-dasharray: 1.85,0.8; stroke-dashoffset: 0; stroke: #b2b2b2; stroke-width: 0.5"/>
     </g>
     <g id="line2d_23">
      <g>
       <use xlink:href="#md9bdda20f7" x="615.029047" y="560.150145" style="stroke: #000000; stroke-width: 0.8"/>
      </g>
     </g>
     <g id="text_16">
      <!-- 1000 -->
      <g transform="translate(597.214047 574.287957)scale(0.14 -0.14)">
       <use xlink:href="#DejaVuSans-31"/>
       <use xlink:href="#DejaVuSans-30" x="63.623047"/>
       <use xlink:href="#DejaVuSans-30" x="127.246094"/>
       <use xlink:href="#DejaVuSans-30" x="190.869141"/>
      </g>
     </g>
    </g>
    <g id="xtick_9">
     <g id="line2d_24">
      <path d="M 664.720978 560.150145 
L 664.720978 25.3575 
" clip-path="url(#p35650b0f24)" style="fill: none; stroke-dasharray: 1.85,0.8; stroke-dashoffset: 0; stroke: #b2b2b2; stroke-width: 0.5"/>
     </g>
     <g id="line2d_25">
      <g>
       <use xlink:href="#md9bdda20f7" x="664.720978" y="560.150145" style="stroke: #000000; stroke-width: 0.8"/>
      </g>
     </g>
     <g id="text_17">
      <!-- 2000 -->
      <g transform="translate(646.905978 574.287957)scale(0.14 -0.14)">
       <use xlink:href="#DejaVuSans-32"/>
       <use xlink:href="#DejaVuSans-30" x="63.623047"/>
       <use xlink:href="#DejaVuSans-30" x="127.246094"/>
       <use xlink:href="#DejaVuSans-30" x="190.869141"/>
      </g>
     </g>
    </g>
   </g>
   <g id="matplotlib.axis_4">
    <g id="ytick_8"/>
    <g id="ytick_9"/>
    <g id="ytick_10"/>
    <g id="ytick_11"/>
    <g id="ytick_12"/>
    <g id="ytick_13"/>
    <g id="ytick_14"/>
   </g>
   <g id="line2d_26">
    <defs>
     <path id="md5304309a8" d="M 0 3 
C 0.795609 3 1.55874 2.683901 2.12132 2.12132 
C 2.683901 1.55874 3 0.795609 3 0 
C 3 -0.795609 2.683901 -1.55874 2.12132 -2.12132 
C 1.55874 -2.683901 0.795609 -3 0 -3 
C -0.795609 -3 -1.55874 -2.683901 -2.12132 -2.12132 
C -2.683901 -1.55874 -3 -0.795609 -3 0 
C -3 0.795609 -2.683901 1.55874 -2.12132 2.12132 
C -1.55874 2.683901 -0.795609 3 0 3 
z
" style="stroke: #000000"/>
    </defs>
    <g>
     <use xlink:href="#md5304309a8" x="594.696938" y="521.95067" style="fill: #348abd; stroke: #000000"/>
    </g>
   </g>
   <g id="line2d_27">
    <g>
     <use xlink:href="#md5304309a8" x="591.127399" y="451.9183" style="fill: #348abd; stroke: #000000"/>
    </g>
   </g>
   <g id="line2d_28">
    <g>
     <use xlink:href="#md5304309a8" x="588.190099" y="381.88593" style="fill: #348abd; stroke: #000000"/>
    </g>
   </g>
   <g id="line2d_29">
    <g>
     <use xlink:href="#md5304309a8" x="582.157082" y="311.85356" style="fill: #348abd; stroke: #000000"/>
    </g>
   </g>
   <g id="line2d_30">
    <g>
     <use xlink:href="#md5304309a8" x="621.216953" y="241.82119" style="fill: #348abd; stroke: #000000"/>
    </g>
   </g>
   <g id="line2d_31">
    <g>
     <use xlink:href="#md5304309a8" x="706.072316" y="171.788819" style="fill: #348abd; stroke: #000000"/>
    </g>
   </g>
   <g id="line2d_32">
    <g>
     <use xlink:href="#md5304309a8" x="600.203122" y="101.756449" style="fill: #348abd; stroke: #000000"/>
    </g>
   </g>
   <g id="patch_6">
    <path d="M 565.337116 560.150145 
L 712.268078 560.150145 
" style="fill: none; stroke: #bcbcbc; stroke-width: 0.8; stroke-linejoin: miter; stroke-linecap: square"/>
   </g>
   <g id="patch_7">
    <path d="M 565.337116 25.3575 
L 712.268078 25.3575 
" style="fill: none; stroke: #bcbcbc; stroke-width: 0.8; stroke-linejoin: miter; stroke-linecap: square"/>
   </g>
   <g id="text_18">
    <!-- ess -->
    <g transform="translate(625.545097 19.3575)scale(0.16 -0.16)">
     <defs>
      <path id="DejaVuSans-73" d="M 2834 3397 
L 2834 2853 
Q 2591 2978 2328 3040 
Q 2066 3103 1784 3103 
Q 1356 3103 1142 2972 
Q 928 2841 928 2578 
Q 928 2378 1081 2264 
Q 1234 2150 1697 2047 
L 1894 2003 
Q 2506 1872 2764 1633 
Q 3022 1394 3022 966 
Q 3022 478 2636 193 
Q 2250 -91 1575 -91 
Q 1294 -91 989 -36 
Q 684 19 347 128 
L 347 722 
Q 666 556 975 473 
Q 1284 391 1588 391 
Q 1994 391 2212 530 
Q 2431 669 2431 922 
Q 2431 1156 2273 1281 
Q 2116 1406 1581 1522 
L 1381 1569 
Q 847 1681 609 1914 
Q 372 2147 372 2553 
Q 372 3047 722 3315 
Q 1072 3584 1716 3584 
Q 2034 3584 2315 3537 
Q 2597 3491 2834 3397 
z
" transform="scale(0.015625)"/>
     </defs>
     <use xlink:href="#DejaVuSans-65"/>
     <use xlink:href="#DejaVuSans-73" x="61.523438"/>
     <use xlink:href="#DejaVuSans-73" x="113.623047"/>
    </g>
   </g>
  </g>
  <g id="axes_3">
   <g id="patch_8">
    <path d="M 718.268558 560.150145 
L 865.19952 560.150145 
L 865.19952 25.3575 
L 718.268558 25.3575 
z
" style="fill: #eeeeee"/>
   </g>
   <g id="matplotlib.axis_5">
    <g id="xtick_10">
     <g id="line2d_33">
      <path d="M 730.512805 560.150145 
L 730.512805 25.3575 
" clip-path="url(#p4667b45221)" style="fill: none; stroke-dasharray: 1.85,0.8; stroke-dashoffset: 0; stroke: #b2b2b2; stroke-width: 0.5"/>
     </g>
     <g id="line2d_34">
      <g>
       <use xlink:href="#md9bdda20f7" x="730.512805" y="560.150145" style="stroke: #000000; stroke-width: 0.8"/>
      </g>
     </g>
     <g id="text_19">
      <!-- 1 -->
      <g transform="translate(726.059055 574.287957)scale(0.14 -0.14)">
       <use xlink:href="#DejaVuSans-31"/>
      </g>
     </g>
    </g>
    <g id="xtick_11">
     <g id="line2d_35">
      <path d="M 852.955273 560.150145 
L 852.955273 25.3575 
" clip-path="url(#p4667b45221)" style="fill: none; stroke-dasharray: 1.85,0.8; stroke-dashoffset: 0; stroke: #b2b2b2; stroke-width: 0.5"/>
     </g>
     <g id="line2d_36">
      <g>
       <use xlink:href="#md9bdda20f7" x="852.955273" y="560.150145" style="stroke: #000000; stroke-width: 0.8"/>
      </g>
     </g>
     <g id="text_20">
      <!-- 2 -->
      <g transform="translate(848.501523 574.287957)scale(0.14 -0.14)">
       <use xlink:href="#DejaVuSans-32"/>
      </g>
     </g>
    </g>
   </g>
   <g id="matplotlib.axis_6">
    <g id="ytick_15"/>
    <g id="ytick_16"/>
    <g id="ytick_17"/>
    <g id="ytick_18"/>
    <g id="ytick_19"/>
    <g id="ytick_20"/>
    <g id="ytick_21"/>
   </g>
   <g id="line2d_37">
    <g clip-path="url(#p4667b45221)">
     <use xlink:href="#md5304309a8" x="730.699931" y="521.95067" style="fill: #348abd; stroke: #000000"/>
    </g>
   </g>
   <g id="line2d_38">
    <g clip-path="url(#p4667b45221)">
     <use xlink:href="#md5304309a8" x="730.827372" y="451.9183" style="fill: #348abd; stroke: #000000"/>
    </g>
   </g>
   <g id="line2d_39">
    <g clip-path="url(#p4667b45221)">
     <use xlink:href="#md5304309a8" x="731.140316" y="381.88593" style="fill: #348abd; stroke: #000000"/>
    </g>
   </g>
   <g id="line2d_40">
    <g clip-path="url(#p4667b45221)">
     <use xlink:href="#md5304309a8" x="730.986074" y="311.85356" style="fill: #348abd; stroke: #000000"/>
    </g>
   </g>
   <g id="line2d_41">
    <g clip-path="url(#p4667b45221)">
     <use xlink:href="#md5304309a8" x="730.51705" y="241.82119" style="fill: #348abd; stroke: #000000"/>
    </g>
   </g>
   <g id="line2d_42">
    <g clip-path="url(#p4667b45221)">
     <use xlink:href="#md5304309a8" x="730.523817" y="171.788819" style="fill: #348abd; stroke: #000000"/>
    </g>
   </g>
   <g id="line2d_43">
    <g clip-path="url(#p4667b45221)">
     <use xlink:href="#md5304309a8" x="730.631911" y="101.756449" style="fill: #348abd; stroke: #000000"/>
    </g>
   </g>
   <g id="patch_9">
    <path d="M 718.268558 560.150145 
L 865.19952 560.150145 
" style="fill: none; stroke: #bcbcbc; stroke-width: 0.8; stroke-linejoin: miter; stroke-linecap: square"/>
   </g>
   <g id="patch_10">
    <path d="M 718.268558 25.3575 
L 865.19952 25.3575 
" style="fill: none; stroke: #bcbcbc; stroke-width: 0.8; stroke-linejoin: miter; stroke-linecap: square"/>
   </g>
   <g id="text_21">
    <!-- r_hat -->
    <g transform="translate(771.336539 19.3575)scale(0.16 -0.16)">
     <defs>
      <path id="DejaVuSans-72" d="M 2631 2963 
Q 2534 3019 2420 3045 
Q 2306 3072 2169 3072 
Q 1681 3072 1420 2755 
Q 1159 2438 1159 1844 
L 1159 0 
L 581 0 
L 581 3500 
L 1159 3500 
L 1159 2956 
Q 1341 3275 1631 3429 
Q 1922 3584 2338 3584 
Q 2397 3584 2469 3576 
Q 2541 3569 2628 3553 
L 2631 2963 
z
" transform="scale(0.015625)"/>
      <path id="DejaVuSans-68" d="M 3513 2113 
L 3513 0 
L 2938 0 
L 2938 2094 
Q 2938 2591 2744 2837 
Q 2550 3084 2163 3084 
Q 1697 3084 1428 2787 
Q 1159 2491 1159 1978 
L 1159 0 
L 581 0 
L 581 4863 
L 1159 4863 
L 1159 2956 
Q 1366 3272 1645 3428 
Q 1925 3584 2291 3584 
Q 2894 3584 3203 3211 
Q 3513 2838 3513 2113 
z
" transform="scale(0.015625)"/>
      <path id="DejaVuSans-74" d="M 1172 4494 
L 1172 3500 
L 2356 3500 
L 2356 3053 
L 1172 3053 
L 1172 1153 
Q 1172 725 1289 603 
Q 1406 481 1766 481 
L 2356 481 
L 2356 0 
L 1766 0 
Q 1100 0 847 248 
Q 594 497 594 1153 
L 594 3053 
L 172 3053 
L 172 3500 
L 594 3500 
L 594 4494 
L 1172 4494 
z
" transform="scale(0.015625)"/>
     </defs>
     <use xlink:href="#DejaVuSans-72"/>
     <use xlink:href="#DejaVuSans-5f" x="41.113281"/>
     <use xlink:href="#DejaVuSans-68" x="91.113281"/>
     <use xlink:href="#DejaVuSans-61" x="154.492188"/>
     <use xlink:href="#DejaVuSans-74" x="215.771484"/>
    </g>
   </g>
  </g>
 </g>
 <defs>
  <clipPath id="p7b2fdb9874">
   <rect x="114.09" y="25.3575" width="440.792886" height="534.792645"/>
  </clipPath>
  <clipPath id="p35650b0f24">
   <rect x="565.337116" y="25.3575" width="146.930962" height="534.792645"/>
  </clipPath>
  <clipPath id="p4667b45221">
   <rect x="718.268558" y="25.3575" width="146.930962" height="534.792645"/>
  </clipPath>
 </defs>
</svg>
