<?xml version="1.0" encoding="utf-8" standalone="no"?>
<!DOCTYPE svg PUBLIC "-//W3C//DTD SVG 1.1//EN"
  "http://www.w3.org/Graphics/SVG/1.1/DTD/svg11.dtd">
<svg xmlns:xlink="http://www.w3.org/1999/xlink" width="728.56375pt" height="386.293625pt" viewBox="0 0 728.56375 386.293625" xmlns="http://www.w3.org/2000/svg" version="1.1">
 <metadata>
  <rdf:RDF xmlns:dc="http://purl.org/dc/elements/1.1/" xmlns:cc="http://creativecommons.org/ns#" xmlns:rdf="http://www.w3.org/1999/02/22-rdf-syntax-ns#">
   <cc:Work>
    <dc:type rdf:resource="http://purl.org/dc/dcmitype/StillImage"/>
    <dc:date>2022-08-09T22:54:08.897676</dc:date>
    <dc:format>image/svg+xml</dc:format>
    <dc:creator>
     <cc:Agent>
      <dc:title>Matplotlib v3.5.0, https://matplotlib.org/</dc:title>
     </cc:Agent>
    </dc:creator>
   </cc:Work>
  </rdf:RDF>
 </metadata>
 <defs>
  <style type="text/css">*{stroke-linejoin: round; stroke-linecap: butt}</style>
 </defs>
 <g id="figure_1">
  <g id="patch_1">
   <path d="M -0 386.293625 
L 728.56375 386.293625 
L 728.56375 0 
L -0 0 
z
" style="fill: #ffffff"/>
  </g>
  <g id="axes_1">
   <g id="patch_2">
    <path d="M 51.76375 350.30175 
L 721.36375 350.30175 
L 721.36375 24.14175 
L 51.76375 24.14175 
z
" style="fill: #eeeeee"/>
   </g>
   <g id="PolyCollection_1">
    <defs>
     <path id="m6df7ed9e50" d="M 82.200114 -63.827302 
L 82.200114 -50.81733 
L 87.942824 -50.81733 
L 93.685534 -50.81733 
L 99.428244 -50.81733 
L 105.170954 -50.81733 
L 110.913664 -50.81733 
L 116.656374 -50.81733 
L 122.399084 -50.81733 
L 128.141795 -50.81733 
L 133.884505 -50.81733 
L 139.627215 -50.81733 
L 145.369925 -50.81733 
L 151.112635 -50.81733 
L 156.855345 -50.81733 
L 162.598055 -50.81733 
L 168.340765 -50.81733 
L 174.083476 -50.81733 
L 179.826186 -50.81733 
L 185.568896 -50.81733 
L 191.311606 -50.81733 
L 197.054316 -50.81733 
L 202.797026 -50.81733 
L 208.539736 -50.81733 
L 214.282446 -50.81733 
L 220.025157 -50.81733 
L 225.767867 -50.81733 
L 231.510577 -50.81733 
L 237.253287 -50.81733 
L 242.995997 -50.81733 
L 248.738707 -50.81733 
L 254.481417 -50.81733 
L 260.224127 -50.81733 
L 265.966837 -50.81733 
L 271.709548 -50.81733 
L 277.452258 -50.81733 
L 283.194968 -50.81733 
L 288.937678 -50.81733 
L 294.680388 -50.81733 
L 300.423098 -50.81733 
L 306.165808 -50.81733 
L 311.908518 -50.81733 
L 317.651229 -50.81733 
L 323.393939 -50.81733 
L 329.136649 -50.81733 
L 334.879359 -50.81733 
L 340.622069 -50.81733 
L 346.364779 -50.81733 
L 352.107489 -50.81733 
L 357.850199 -50.81733 
L 363.59291 -50.81733 
L 369.33562 -50.81733 
L 375.07833 -50.81733 
L 380.82104 -50.81733 
L 386.56375 -50.81733 
L 392.30646 -50.81733 
L 398.04917 -50.81733 
L 403.79188 -50.81733 
L 409.53459 -50.81733 
L 415.277301 -50.81733 
L 421.020011 -50.81733 
L 426.762721 -50.81733 
L 432.505431 -50.81733 
L 438.248141 -50.81733 
L 443.990851 -50.81733 
L 449.733561 -50.81733 
L 455.476271 -50.81733 
L 461.218982 -50.81733 
L 466.961692 -50.81733 
L 472.704402 -50.81733 
L 478.447112 -50.81733 
L 484.189822 -50.81733 
L 489.932532 -50.81733 
L 495.675242 -50.81733 
L 501.417952 -50.81733 
L 507.160663 -50.81733 
L 512.903373 -50.81733 
L 518.646083 -50.81733 
L 524.388793 -50.81733 
L 530.131503 -50.81733 
L 535.874213 -50.81733 
L 541.616923 -50.81733 
L 547.359633 -50.81733 
L 553.102343 -50.81733 
L 558.845054 -50.81733 
L 564.587764 -50.81733 
L 570.330474 -50.81733 
L 576.073184 -50.81733 
L 581.815894 -50.81733 
L 587.558604 -50.81733 
L 593.301314 -50.81733 
L 599.044024 -50.81733 
L 604.786735 -50.81733 
L 610.529445 -50.81733 
L 616.272155 -50.81733 
L 622.014865 -50.81733 
L 627.757575 -50.81733 
L 633.500285 -50.81733 
L 639.242995 -50.81733 
L 644.985705 -50.81733 
L 650.728416 -50.81733 
L 656.471126 -50.81733 
L 662.213836 -50.81733 
L 667.956546 -50.81733 
L 673.699256 -50.81733 
L 679.441966 -50.81733 
L 685.184676 -50.81733 
L 690.927386 -50.81733 
L 690.927386 -210.603441 
L 690.927386 -210.603441 
L 685.184676 -207.528357 
L 679.441966 -256.611433 
L 673.699256 -235.795478 
L 667.956546 -222.548961 
L 662.213836 -192.507753 
L 656.471126 -259.568245 
L 650.728416 -235.085843 
L 644.985705 -214.151615 
L 639.242995 -276.008119 
L 633.500285 -242.418737 
L 627.757575 -262.406785 
L 622.014865 -210.485169 
L 616.272155 -257.084523 
L 610.529445 -265.127051 
L 604.786735 -211.313076 
L 599.044024 -277.072571 
L 593.301314 -247.38618 
L 587.558604 -245.493821 
L 581.815894 -213.087163 
L 576.073184 -295.996167 
L 570.330474 -237.33302 
L 564.587764 -240.644649 
L 558.845054 -284.878554 
L 553.102343 -241.590829 
L 547.359633 -282.040015 
L 541.616923 -219.355604 
L 535.874213 -263.826054 
L 530.131503 -260.75097 
L 524.388793 -225.86059 
L 518.646083 -299.899159 
L 512.903373 -278.255296 
L 507.160663 -285.706462 
L 501.417952 -226.451953 
L 495.675242 -258.030703 
L 489.932532 -269.38486 
L 484.189822 -237.096475 
L 478.447112 -302.85597 
L 472.704402 -286.534369 
L 466.961692 -283.22274 
L 461.218982 -253.418077 
L 455.476271 -266.782866 
L 449.733561 -283.577557 
L 443.990851 -259.3317 
L 438.248141 -295.996167 
L 432.505431 -294.22208 
L 426.762721 -291.265268 
L 421.020011 -263.589509 
L 415.277301 -288.899819 
L 409.53459 -260.987515 
L 403.79188 -249.27854 
L 398.04917 -301.791518 
L 392.30646 -299.071251 
L 386.56375 -272.69649 
L 380.82104 -270.922403 
L 375.07833 -328.63937 
L 369.33562 -321.779566 
L 363.59291 -245.966911 
L 357.850199 -314.446673 
L 352.107489 -269.266588 
L 346.364779 -293.2759 
L 340.622069 -223.258596 
L 334.879359 -318.586209 
L 329.136649 -264.062599 
L 323.393939 -268.083863 
L 317.651229 -347.32642 
L 311.908518 -299.189524 
L 306.165808 -269.503133 
L 300.423098 -239.22538 
L 294.680388 -310.188864 
L 288.937678 -269.38486 
L 283.194968 -254.482529 
L 277.452258 -323.080563 
L 271.709548 -308.059959 
L 265.966837 -285.588189 
L 260.224127 -243.128371 
L 254.481417 -298.952979 
L 248.738707 -328.521097 
L 242.995997 -248.095815 
L 237.253287 -296.705802 
L 231.510577 -298.243344 
L 225.767867 -306.877235 
L 220.025157 -286.061279 
L 214.282446 -282.394833 
L 208.539736 -288.426729 
L 202.797026 -245.375548 
L 197.054316 -322.489201 
L 191.311606 -308.769594 
L 185.568896 -302.028063 
L 179.826186 -237.214748 
L 174.083476 -285.469917 
L 168.340765 -287.362276 
L 162.598055 -267.847318 
L 156.855345 -299.307796 
L 151.112635 -312.317768 
L 145.369925 -292.566265 
L 139.627215 -252.471897 
L 133.884505 -307.232052 
L 128.141795 -265.127051 
L 122.399084 -252.471897 
L 116.656374 -309.360956 
L 110.913664 -290.200816 
L 105.170954 -308.414777 
L 99.428244 -247.504453 
L 93.685534 -321.543021 
L 87.942824 -263.234692 
L 82.200114 -63.827302 
z
" style="stroke: #348abd; stroke-opacity: 0.3; stroke-width: 0.5"/>
    </defs>
    <g clip-path="url(#paf67cc432b)">
     <use xlink:href="#m6df7ed9e50" x="0" y="386.293625" style="fill: #348abd; fill-opacity: 0.3; stroke: #348abd; stroke-opacity: 0.3; stroke-width: 0.5"/>
    </g>
   </g>
   <g id="PolyCollection_2">
    <defs>
     <path id="m2c10231497" d="M 82.200114 -58.741585 
L 82.200114 -55.784773 
L 87.942824 -50.81733 
L 93.685534 -50.81733 
L 99.428244 -50.81733 
L 105.170954 -50.81733 
L 110.913664 -50.81733 
L 116.656374 -50.81733 
L 122.399084 -50.81733 
L 128.141795 -51.053874 
L 133.884505 -50.81733 
L 139.627215 -50.81733 
L 145.369925 -50.81733 
L 151.112635 -50.81733 
L 156.855345 -50.81733 
L 162.598055 -50.81733 
L 168.340765 -50.81733 
L 174.083476 -50.81733 
L 179.826186 -50.81733 
L 185.568896 -50.81733 
L 191.311606 -50.81733 
L 197.054316 -50.81733 
L 202.797026 -50.81733 
L 208.539736 -50.81733 
L 214.282446 -50.81733 
L 220.025157 -50.81733 
L 225.767867 -50.81733 
L 231.510577 -50.81733 
L 237.253287 -50.81733 
L 242.995997 -50.81733 
L 248.738707 -50.81733 
L 254.481417 -50.81733 
L 260.224127 -50.81733 
L 265.966837 -50.81733 
L 271.709548 -50.81733 
L 277.452258 -50.81733 
L 283.194968 -50.81733 
L 288.937678 -50.81733 
L 294.680388 -50.81733 
L 300.423098 -50.81733 
L 306.165808 -50.81733 
L 311.908518 -50.935602 
L 317.651229 -50.81733 
L 323.393939 -50.81733 
L 329.136649 -50.81733 
L 334.879359 -50.81733 
L 340.622069 -50.81733 
L 346.364779 -50.81733 
L 352.107489 -50.81733 
L 357.850199 -50.81733 
L 363.59291 -50.935602 
L 369.33562 -50.81733 
L 375.07833 -50.81733 
L 380.82104 -50.81733 
L 386.56375 -50.81733 
L 392.30646 -50.935602 
L 398.04917 -50.81733 
L 403.79188 -50.81733 
L 409.53459 -50.935602 
L 415.277301 -50.81733 
L 421.020011 -50.81733 
L 426.762721 -50.81733 
L 432.505431 -50.81733 
L 438.248141 -50.81733 
L 443.990851 -50.81733 
L 449.733561 -50.81733 
L 455.476271 -50.81733 
L 461.218982 -50.81733 
L 466.961692 -50.935602 
L 472.704402 -50.81733 
L 478.447112 -50.81733 
L 484.189822 -50.81733 
L 489.932532 -50.81733 
L 495.675242 -50.81733 
L 501.417952 -50.81733 
L 507.160663 -50.81733 
L 512.903373 -50.81733 
L 518.646083 -50.81733 
L 524.388793 -50.81733 
L 530.131503 -50.81733 
L 535.874213 -50.81733 
L 541.616923 -50.81733 
L 547.359633 -50.81733 
L 553.102343 -50.81733 
L 558.845054 -50.81733 
L 564.587764 -50.81733 
L 570.330474 -50.81733 
L 576.073184 -50.81733 
L 581.815894 -50.81733 
L 587.558604 -50.81733 
L 593.301314 -50.81733 
L 599.044024 -50.81733 
L 604.786735 -50.81733 
L 610.529445 -50.81733 
L 616.272155 -50.81733 
L 622.014865 -50.81733 
L 627.757575 -50.81733 
L 633.500285 -50.81733 
L 639.242995 -50.81733 
L 644.985705 -50.81733 
L 650.728416 -50.81733 
L 656.471126 -50.81733 
L 662.213836 -50.81733 
L 667.956546 -50.81733 
L 673.699256 -50.81733 
L 679.441966 -50.81733 
L 685.184676 -50.81733 
L 690.927386 -50.81733 
L 690.927386 -59.332948 
L 690.927386 -59.332948 
L 685.184676 -60.160855 
L 679.441966 -59.45122 
L 673.699256 -60.042582 
L 667.956546 -60.160855 
L 662.213836 -59.687765 
L 656.471126 -60.3974 
L 650.728416 -60.042582 
L 644.985705 -61.107035 
L 639.242995 -60.752217 
L 633.500285 -60.160855 
L 627.757575 -61.34358 
L 622.014865 -60.3974 
L 616.272155 -61.107035 
L 610.529445 -60.279127 
L 604.786735 -61.34358 
L 599.044024 -61.107035 
L 593.301314 -60.988762 
L 587.558604 -61.698397 
L 581.815894 -61.107035 
L 576.073184 -60.87049 
L 570.330474 -60.3974 
L 564.587764 -62.762849 
L 558.845054 -61.225307 
L 553.102343 -60.160855 
L 547.359633 -61.34358 
L 541.616923 -61.698397 
L 535.874213 -61.34358 
L 530.131503 -60.988762 
L 524.388793 -62.762849 
L 518.646083 -62.171487 
L 512.903373 -61.934942 
L 507.160663 -62.762849 
L 501.417952 -61.34358 
L 495.675242 -61.934942 
L 489.932532 -62.053215 
L 484.189822 -62.762849 
L 478.447112 -61.698397 
L 472.704402 -62.408032 
L 466.961692 -62.408032 
L 461.218982 -61.81667 
L 455.476271 -62.644577 
L 449.733561 -60.988762 
L 443.990851 -63.827302 
L 438.248141 -62.053215 
L 432.505431 -62.289759 
L 426.762721 -62.171487 
L 421.020011 -61.934942 
L 415.277301 -62.644577 
L 409.53459 -62.289759 
L 403.79188 -63.590757 
L 398.04917 -62.644577 
L 392.30646 -61.34358 
L 386.56375 -62.644577 
L 380.82104 -62.526304 
L 375.07833 -63.235939 
L 369.33562 -62.526304 
L 363.59291 -64.300392 
L 357.850199 -62.644577 
L 352.107489 -61.934942 
L 346.364779 -63.354212 
L 340.622069 -62.408032 
L 334.879359 -63.235939 
L 329.136649 -62.289759 
L 323.393939 -63.827302 
L 317.651229 -63.472484 
L 311.908518 -62.289759 
L 306.165808 -62.881122 
L 300.423098 -61.934942 
L 294.680388 -62.999394 
L 288.937678 -62.053215 
L 283.194968 -64.063847 
L 277.452258 -62.526304 
L 271.709548 -62.053215 
L 265.966837 -62.999394 
L 260.224127 -62.171487 
L 254.481417 -62.881122 
L 248.738707 -62.644577 
L 242.995997 -64.063847 
L 237.253287 -63.354212 
L 231.510577 -61.934942 
L 225.767867 -62.999394 
L 220.025157 -61.81667 
L 214.282446 -63.472484 
L 208.539736 -61.934942 
L 202.797026 -64.063847 
L 197.054316 -63.117667 
L 191.311606 -62.171487 
L 185.568896 -63.590757 
L 179.826186 -62.762849 
L 174.083476 -62.999394 
L 168.340765 -61.934942 
L 162.598055 -63.472484 
L 156.855345 -63.235939 
L 151.112635 -62.289759 
L 145.369925 -63.117667 
L 139.627215 -62.999394 
L 133.884505 -63.235939 
L 128.141795 -62.762849 
L 122.399084 -63.945574 
L 116.656374 -62.644577 
L 110.913664 -61.34358 
L 105.170954 -63.235939 
L 99.428244 -62.289759 
L 93.685534 -61.34358 
L 87.942824 -58.50504 
L 82.200114 -58.741585 
z
" style="stroke: #348abd; stroke-opacity: 0.5; stroke-width: 0.5"/>
    </defs>
    <g clip-path="url(#paf67cc432b)">
     <use xlink:href="#m2c10231497" x="0" y="386.293625" style="fill: #348abd; fill-opacity: 0.5; stroke: #348abd; stroke-opacity: 0.5; stroke-width: 0.5"/>
    </g>
   </g>
   <g id="matplotlib.axis_1">
    <g id="xtick_1">
     <g id="line2d_1">
      <path d="M 82.200114 350.30175 
L 82.200114 24.14175 
" clip-path="url(#paf67cc432b)" style="fill: none; stroke-dasharray: 1.85,0.8; stroke-dashoffset: 0; stroke: #b2b2b2; stroke-width: 0.5"/>
     </g>
     <g id="line2d_2">
      <defs>
       <path id="ma5b04cb325" d="M 0 0 
L 0 -3.5 
" style="stroke: #000000; stroke-width: 0.8"/>
      </defs>
      <g>
       <use xlink:href="#ma5b04cb325" x="82.200114" y="350.30175" style="stroke: #000000; stroke-width: 0.8"/>
      </g>
     </g>
     <g id="text_1">
      <!-- 2013-07-01 -->
      <g transform="translate(53.142301 361.400188)scale(0.1 -0.1)">
       <defs>
        <path id="DejaVuSans-32" d="M 1228 531 
L 3431 531 
L 3431 0 
L 469 0 
L 469 531 
Q 828 903 1448 1529 
Q 2069 2156 2228 2338 
Q 2531 2678 2651 2914 
Q 2772 3150 2772 3378 
Q 2772 3750 2511 3984 
Q 2250 4219 1831 4219 
Q 1534 4219 1204 4116 
Q 875 4013 500 3803 
L 500 4441 
Q 881 4594 1212 4672 
Q 1544 4750 1819 4750 
Q 2544 4750 2975 4387 
Q 3406 4025 3406 3419 
Q 3406 3131 3298 2873 
Q 3191 2616 2906 2266 
Q 2828 2175 2409 1742 
Q 1991 1309 1228 531 
z
" transform="scale(0.015625)"/>
        <path id="DejaVuSans-30" d="M 2034 4250 
Q 1547 4250 1301 3770 
Q 1056 3291 1056 2328 
Q 1056 1369 1301 889 
Q 1547 409 2034 409 
Q 2525 409 2770 889 
Q 3016 1369 3016 2328 
Q 3016 3291 2770 3770 
Q 2525 4250 2034 4250 
z
M 2034 4750 
Q 2819 4750 3233 4129 
Q 3647 3509 3647 2328 
Q 3647 1150 3233 529 
Q 2819 -91 2034 -91 
Q 1250 -91 836 529 
Q 422 1150 422 2328 
Q 422 3509 836 4129 
Q 1250 4750 2034 4750 
z
" transform="scale(0.015625)"/>
        <path id="DejaVuSans-31" d="M 794 531 
L 1825 531 
L 1825 4091 
L 703 3866 
L 703 4441 
L 1819 4666 
L 2450 4666 
L 2450 531 
L 3481 531 
L 3481 0 
L 794 0 
L 794 531 
z
" transform="scale(0.015625)"/>
        <path id="DejaVuSans-33" d="M 2597 2516 
Q 3050 2419 3304 2112 
Q 3559 1806 3559 1356 
Q 3559 666 3084 287 
Q 2609 -91 1734 -91 
Q 1441 -91 1130 -33 
Q 819 25 488 141 
L 488 750 
Q 750 597 1062 519 
Q 1375 441 1716 441 
Q 2309 441 2620 675 
Q 2931 909 2931 1356 
Q 2931 1769 2642 2001 
Q 2353 2234 1838 2234 
L 1294 2234 
L 1294 2753 
L 1863 2753 
Q 2328 2753 2575 2939 
Q 2822 3125 2822 3475 
Q 2822 3834 2567 4026 
Q 2313 4219 1838 4219 
Q 1578 4219 1281 4162 
Q 984 4106 628 3988 
L 628 4550 
Q 988 4650 1302 4700 
Q 1616 4750 1894 4750 
Q 2613 4750 3031 4423 
Q 3450 4097 3450 3541 
Q 3450 3153 3228 2886 
Q 3006 2619 2597 2516 
z
" transform="scale(0.015625)"/>
        <path id="DejaVuSans-2d" d="M 313 2009 
L 1997 2009 
L 1997 1497 
L 313 1497 
L 313 2009 
z
" transform="scale(0.015625)"/>
        <path id="DejaVuSans-37" d="M 525 4666 
L 3525 4666 
L 3525 4397 
L 1831 0 
L 1172 0 
L 2766 4134 
L 525 4134 
L 525 4666 
z
" transform="scale(0.015625)"/>
       </defs>
       <use xlink:href="#DejaVuSans-32"/>
       <use xlink:href="#DejaVuSans-30" x="63.623047"/>
       <use xlink:href="#DejaVuSans-31" x="127.246094"/>
       <use xlink:href="#DejaVuSans-33" x="190.869141"/>
       <use xlink:href="#DejaVuSans-2d" x="254.492188"/>
       <use xlink:href="#DejaVuSans-30" x="290.576172"/>
       <use xlink:href="#DejaVuSans-37" x="354.199219"/>
       <use xlink:href="#DejaVuSans-2d" x="417.822266"/>
       <use xlink:href="#DejaVuSans-30" x="453.90625"/>
       <use xlink:href="#DejaVuSans-31" x="517.529297"/>
      </g>
     </g>
    </g>
    <g id="xtick_2">
     <g id="line2d_3">
      <path d="M 162.598055 350.30175 
L 162.598055 24.14175 
" clip-path="url(#paf67cc432b)" style="fill: none; stroke-dasharray: 1.85,0.8; stroke-dashoffset: 0; stroke: #b2b2b2; stroke-width: 0.5"/>
     </g>
     <g id="line2d_4">
      <g>
       <use xlink:href="#ma5b04cb325" x="162.598055" y="350.30175" style="stroke: #000000; stroke-width: 0.8"/>
      </g>
     </g>
     <g id="text_2">
      <!-- 2013-07-15 -->
      <g transform="translate(133.540243 361.400188)scale(0.1 -0.1)">
       <defs>
        <path id="DejaVuSans-35" d="M 691 4666 
L 3169 4666 
L 3169 4134 
L 1269 4134 
L 1269 2991 
Q 1406 3038 1543 3061 
Q 1681 3084 1819 3084 
Q 2600 3084 3056 2656 
Q 3513 2228 3513 1497 
Q 3513 744 3044 326 
Q 2575 -91 1722 -91 
Q 1428 -91 1123 -41 
Q 819 9 494 109 
L 494 744 
Q 775 591 1075 516 
Q 1375 441 1709 441 
Q 2250 441 2565 725 
Q 2881 1009 2881 1497 
Q 2881 1984 2565 2268 
Q 2250 2553 1709 2553 
Q 1456 2553 1204 2497 
Q 953 2441 691 2322 
L 691 4666 
z
" transform="scale(0.015625)"/>
       </defs>
       <use xlink:href="#DejaVuSans-32"/>
       <use xlink:href="#DejaVuSans-30" x="63.623047"/>
       <use xlink:href="#DejaVuSans-31" x="127.246094"/>
       <use xlink:href="#DejaVuSans-33" x="190.869141"/>
       <use xlink:href="#DejaVuSans-2d" x="254.492188"/>
       <use xlink:href="#DejaVuSans-30" x="290.576172"/>
       <use xlink:href="#DejaVuSans-37" x="354.199219"/>
       <use xlink:href="#DejaVuSans-2d" x="417.822266"/>
       <use xlink:href="#DejaVuSans-31" x="453.90625"/>
       <use xlink:href="#DejaVuSans-35" x="517.529297"/>
      </g>
     </g>
    </g>
    <g id="xtick_3">
     <g id="line2d_5">
      <path d="M 260.224127 350.30175 
L 260.224127 24.14175 
" clip-path="url(#paf67cc432b)" style="fill: none; stroke-dasharray: 1.85,0.8; stroke-dashoffset: 0; stroke: #b2b2b2; stroke-width: 0.5"/>
     </g>
     <g id="line2d_6">
      <g>
       <use xlink:href="#ma5b04cb325" x="260.224127" y="350.30175" style="stroke: #000000; stroke-width: 0.8"/>
      </g>
     </g>
     <g id="text_3">
      <!-- 2013-08-01 -->
      <g transform="translate(231.166315 361.400188)scale(0.1 -0.1)">
       <defs>
        <path id="DejaVuSans-38" d="M 2034 2216 
Q 1584 2216 1326 1975 
Q 1069 1734 1069 1313 
Q 1069 891 1326 650 
Q 1584 409 2034 409 
Q 2484 409 2743 651 
Q 3003 894 3003 1313 
Q 3003 1734 2745 1975 
Q 2488 2216 2034 2216 
z
M 1403 2484 
Q 997 2584 770 2862 
Q 544 3141 544 3541 
Q 544 4100 942 4425 
Q 1341 4750 2034 4750 
Q 2731 4750 3128 4425 
Q 3525 4100 3525 3541 
Q 3525 3141 3298 2862 
Q 3072 2584 2669 2484 
Q 3125 2378 3379 2068 
Q 3634 1759 3634 1313 
Q 3634 634 3220 271 
Q 2806 -91 2034 -91 
Q 1263 -91 848 271 
Q 434 634 434 1313 
Q 434 1759 690 2068 
Q 947 2378 1403 2484 
z
M 1172 3481 
Q 1172 3119 1398 2916 
Q 1625 2713 2034 2713 
Q 2441 2713 2670 2916 
Q 2900 3119 2900 3481 
Q 2900 3844 2670 4047 
Q 2441 4250 2034 4250 
Q 1625 4250 1398 4047 
Q 1172 3844 1172 3481 
z
" transform="scale(0.015625)"/>
       </defs>
       <use xlink:href="#DejaVuSans-32"/>
       <use xlink:href="#DejaVuSans-30" x="63.623047"/>
       <use xlink:href="#DejaVuSans-31" x="127.246094"/>
       <use xlink:href="#DejaVuSans-33" x="190.869141"/>
       <use xlink:href="#DejaVuSans-2d" x="254.492188"/>
       <use xlink:href="#DejaVuSans-30" x="290.576172"/>
       <use xlink:href="#DejaVuSans-38" x="354.199219"/>
       <use xlink:href="#DejaVuSans-2d" x="417.822266"/>
       <use xlink:href="#DejaVuSans-30" x="453.90625"/>
       <use xlink:href="#DejaVuSans-31" x="517.529297"/>
      </g>
     </g>
    </g>
    <g id="xtick_4">
     <g id="line2d_7">
      <path d="M 340.622069 350.30175 
L 340.622069 24.14175 
" clip-path="url(#paf67cc432b)" style="fill: none; stroke-dasharray: 1.85,0.8; stroke-dashoffset: 0; stroke: #b2b2b2; stroke-width: 0.5"/>
     </g>
     <g id="line2d_8">
      <g>
       <use xlink:href="#ma5b04cb325" x="340.622069" y="350.30175" style="stroke: #000000; stroke-width: 0.8"/>
      </g>
     </g>
     <g id="text_4">
      <!-- 2013-08-15 -->
      <g transform="translate(311.564257 361.400188)scale(0.1 -0.1)">
       <use xlink:href="#DejaVuSans-32"/>
       <use xlink:href="#DejaVuSans-30" x="63.623047"/>
       <use xlink:href="#DejaVuSans-31" x="127.246094"/>
       <use xlink:href="#DejaVuSans-33" x="190.869141"/>
       <use xlink:href="#DejaVuSans-2d" x="254.492188"/>
       <use xlink:href="#DejaVuSans-30" x="290.576172"/>
       <use xlink:href="#DejaVuSans-38" x="354.199219"/>
       <use xlink:href="#DejaVuSans-2d" x="417.822266"/>
       <use xlink:href="#DejaVuSans-31" x="453.90625"/>
       <use xlink:href="#DejaVuSans-35" x="517.529297"/>
      </g>
     </g>
    </g>
    <g id="xtick_5">
     <g id="line2d_9">
      <path d="M 438.248141 350.30175 
L 438.248141 24.14175 
" clip-path="url(#paf67cc432b)" style="fill: none; stroke-dasharray: 1.85,0.8; stroke-dashoffset: 0; stroke: #b2b2b2; stroke-width: 0.5"/>
     </g>
     <g id="line2d_10">
      <g>
       <use xlink:href="#ma5b04cb325" x="438.248141" y="350.30175" style="stroke: #000000; stroke-width: 0.8"/>
      </g>
     </g>
     <g id="text_5">
      <!-- 2013-09-01 -->
      <g transform="translate(409.190329 361.400188)scale(0.1 -0.1)">
       <defs>
        <path id="DejaVuSans-39" d="M 703 97 
L 703 672 
Q 941 559 1184 500 
Q 1428 441 1663 441 
Q 2288 441 2617 861 
Q 2947 1281 2994 2138 
Q 2813 1869 2534 1725 
Q 2256 1581 1919 1581 
Q 1219 1581 811 2004 
Q 403 2428 403 3163 
Q 403 3881 828 4315 
Q 1253 4750 1959 4750 
Q 2769 4750 3195 4129 
Q 3622 3509 3622 2328 
Q 3622 1225 3098 567 
Q 2575 -91 1691 -91 
Q 1453 -91 1209 -44 
Q 966 3 703 97 
z
M 1959 2075 
Q 2384 2075 2632 2365 
Q 2881 2656 2881 3163 
Q 2881 3666 2632 3958 
Q 2384 4250 1959 4250 
Q 1534 4250 1286 3958 
Q 1038 3666 1038 3163 
Q 1038 2656 1286 2365 
Q 1534 2075 1959 2075 
z
" transform="scale(0.015625)"/>
       </defs>
       <use xlink:href="#DejaVuSans-32"/>
       <use xlink:href="#DejaVuSans-30" x="63.623047"/>
       <use xlink:href="#DejaVuSans-31" x="127.246094"/>
       <use xlink:href="#DejaVuSans-33" x="190.869141"/>
       <use xlink:href="#DejaVuSans-2d" x="254.492188"/>
       <use xlink:href="#DejaVuSans-30" x="290.576172"/>
       <use xlink:href="#DejaVuSans-39" x="354.199219"/>
       <use xlink:href="#DejaVuSans-2d" x="417.822266"/>
       <use xlink:href="#DejaVuSans-30" x="453.90625"/>
       <use xlink:href="#DejaVuSans-31" x="517.529297"/>
      </g>
     </g>
    </g>
    <g id="xtick_6">
     <g id="line2d_11">
      <path d="M 518.646083 350.30175 
L 518.646083 24.14175 
" clip-path="url(#paf67cc432b)" style="fill: none; stroke-dasharray: 1.85,0.8; stroke-dashoffset: 0; stroke: #b2b2b2; stroke-width: 0.5"/>
     </g>
     <g id="line2d_12">
      <g>
       <use xlink:href="#ma5b04cb325" x="518.646083" y="350.30175" style="stroke: #000000; stroke-width: 0.8"/>
      </g>
     </g>
     <g id="text_6">
      <!-- 2013-09-15 -->
      <g transform="translate(489.58827 361.400188)scale(0.1 -0.1)">
       <use xlink:href="#DejaVuSans-32"/>
       <use xlink:href="#DejaVuSans-30" x="63.623047"/>
       <use xlink:href="#DejaVuSans-31" x="127.246094"/>
       <use xlink:href="#DejaVuSans-33" x="190.869141"/>
       <use xlink:href="#DejaVuSans-2d" x="254.492188"/>
       <use xlink:href="#DejaVuSans-30" x="290.576172"/>
       <use xlink:href="#DejaVuSans-39" x="354.199219"/>
       <use xlink:href="#DejaVuSans-2d" x="417.822266"/>
       <use xlink:href="#DejaVuSans-31" x="453.90625"/>
       <use xlink:href="#DejaVuSans-35" x="517.529297"/>
      </g>
     </g>
    </g>
    <g id="xtick_7">
     <g id="line2d_13">
      <path d="M 610.529445 350.30175 
L 610.529445 24.14175 
" clip-path="url(#paf67cc432b)" style="fill: none; stroke-dasharray: 1.85,0.8; stroke-dashoffset: 0; stroke: #b2b2b2; stroke-width: 0.5"/>
     </g>
     <g id="line2d_14">
      <g>
       <use xlink:href="#ma5b04cb325" x="610.529445" y="350.30175" style="stroke: #000000; stroke-width: 0.8"/>
      </g>
     </g>
     <g id="text_7">
      <!-- 2013-10-01 -->
      <g transform="translate(581.471632 361.400188)scale(0.1 -0.1)">
       <use xlink:href="#DejaVuSans-32"/>
       <use xlink:href="#DejaVuSans-30" x="63.623047"/>
       <use xlink:href="#DejaVuSans-31" x="127.246094"/>
       <use xlink:href="#DejaVuSans-33" x="190.869141"/>
       <use xlink:href="#DejaVuSans-2d" x="254.492188"/>
       <use xlink:href="#DejaVuSans-31" x="290.576172"/>
       <use xlink:href="#DejaVuSans-30" x="354.199219"/>
       <use xlink:href="#DejaVuSans-2d" x="417.822266"/>
       <use xlink:href="#DejaVuSans-30" x="453.90625"/>
       <use xlink:href="#DejaVuSans-31" x="517.529297"/>
      </g>
     </g>
    </g>
    <g id="xtick_8">
     <g id="line2d_15">
      <path d="M 690.927386 350.30175 
L 690.927386 24.14175 
" clip-path="url(#paf67cc432b)" style="fill: none; stroke-dasharray: 1.85,0.8; stroke-dashoffset: 0; stroke: #b2b2b2; stroke-width: 0.5"/>
     </g>
     <g id="line2d_16">
      <g>
       <use xlink:href="#ma5b04cb325" x="690.927386" y="350.30175" style="stroke: #000000; stroke-width: 0.8"/>
      </g>
     </g>
     <g id="text_8">
      <!-- 2013-10-15 -->
      <g transform="translate(661.869574 361.400188)scale(0.1 -0.1)">
       <use xlink:href="#DejaVuSans-32"/>
       <use xlink:href="#DejaVuSans-30" x="63.623047"/>
       <use xlink:href="#DejaVuSans-31" x="127.246094"/>
       <use xlink:href="#DejaVuSans-33" x="190.869141"/>
       <use xlink:href="#DejaVuSans-2d" x="254.492188"/>
       <use xlink:href="#DejaVuSans-31" x="290.576172"/>
       <use xlink:href="#DejaVuSans-30" x="354.199219"/>
       <use xlink:href="#DejaVuSans-2d" x="417.822266"/>
       <use xlink:href="#DejaVuSans-31" x="453.90625"/>
       <use xlink:href="#DejaVuSans-35" x="517.529297"/>
      </g>
     </g>
    </g>
    <g id="text_9">
     <!-- date -->
     <g transform="translate(373.03375 376.598)scale(0.12 -0.12)">
      <defs>
       <path id="DejaVuSans-64" d="M 2906 2969 
L 2906 4863 
L 3481 4863 
L 3481 0 
L 2906 0 
L 2906 525 
Q 2725 213 2448 61 
Q 2172 -91 1784 -91 
Q 1150 -91 751 415 
Q 353 922 353 1747 
Q 353 2572 751 3078 
Q 1150 3584 1784 3584 
Q 2172 3584 2448 3432 
Q 2725 3281 2906 2969 
z
M 947 1747 
Q 947 1113 1208 752 
Q 1469 391 1925 391 
Q 2381 391 2643 752 
Q 2906 1113 2906 1747 
Q 2906 2381 2643 2742 
Q 2381 3103 1925 3103 
Q 1469 3103 1208 2742 
Q 947 2381 947 1747 
z
" transform="scale(0.015625)"/>
       <path id="DejaVuSans-61" d="M 2194 1759 
Q 1497 1759 1228 1600 
Q 959 1441 959 1056 
Q 959 750 1161 570 
Q 1363 391 1709 391 
Q 2188 391 2477 730 
Q 2766 1069 2766 1631 
L 2766 1759 
L 2194 1759 
z
M 3341 1997 
L 3341 0 
L 2766 0 
L 2766 531 
Q 2569 213 2275 61 
Q 1981 -91 1556 -91 
Q 1019 -91 701 211 
Q 384 513 384 1019 
Q 384 1609 779 1909 
Q 1175 2209 1959 2209 
L 2766 2209 
L 2766 2266 
Q 2766 2663 2505 2880 
Q 2244 3097 1772 3097 
Q 1472 3097 1187 3025 
Q 903 2953 641 2809 
L 641 3341 
Q 956 3463 1253 3523 
Q 1550 3584 1831 3584 
Q 2591 3584 2966 3190 
Q 3341 2797 3341 1997 
z
" transform="scale(0.015625)"/>
       <path id="DejaVuSans-74" d="M 1172 4494 
L 1172 3500 
L 2356 3500 
L 2356 3053 
L 1172 3053 
L 1172 1153 
Q 1172 725 1289 603 
Q 1406 481 1766 481 
L 2356 481 
L 2356 0 
L 1766 0 
Q 1100 0 847 248 
Q 594 497 594 1153 
L 594 3053 
L 172 3053 
L 172 3500 
L 594 3500 
L 594 4494 
L 1172 4494 
z
" transform="scale(0.015625)"/>
       <path id="DejaVuSans-65" d="M 3597 1894 
L 3597 1613 
L 953 1613 
Q 991 1019 1311 708 
Q 1631 397 2203 397 
Q 2534 397 2845 478 
Q 3156 559 3463 722 
L 3463 178 
Q 3153 47 2828 -22 
Q 2503 -91 2169 -91 
Q 1331 -91 842 396 
Q 353 884 353 1716 
Q 353 2575 817 3079 
Q 1281 3584 2069 3584 
Q 2775 3584 3186 3129 
Q 3597 2675 3597 1894 
z
M 3022 2063 
Q 3016 2534 2758 2815 
Q 2500 3097 2075 3097 
Q 1594 3097 1305 2825 
Q 1016 2553 972 2059 
L 3022 2063 
z
" transform="scale(0.015625)"/>
      </defs>
      <use xlink:href="#DejaVuSans-64"/>
      <use xlink:href="#DejaVuSans-61" x="63.476562"/>
      <use xlink:href="#DejaVuSans-74" x="124.755859"/>
      <use xlink:href="#DejaVuSans-65" x="163.964844"/>
     </g>
    </g>
   </g>
   <g id="matplotlib.axis_2">
    <g id="ytick_1">
     <g id="line2d_17">
      <path d="M 51.76375 335.476295 
L 721.36375 335.476295 
" clip-path="url(#paf67cc432b)" style="fill: none; stroke-dasharray: 1.85,0.8; stroke-dashoffset: 0; stroke: #b2b2b2; stroke-width: 0.5"/>
     </g>
     <g id="line2d_18">
      <defs>
       <path id="m486eead45f" d="M 0 0 
L 3.5 0 
" style="stroke: #000000; stroke-width: 0.8"/>
      </defs>
      <g>
       <use xlink:href="#m486eead45f" x="51.76375" y="335.476295" style="stroke: #000000; stroke-width: 0.8"/>
      </g>
     </g>
     <g id="text_10">
      <!-- 0 -->
      <g transform="translate(41.90125 339.275514)scale(0.1 -0.1)">
       <use xlink:href="#DejaVuSans-30"/>
      </g>
     </g>
    </g>
    <g id="ytick_2">
     <g id="line2d_19">
      <path d="M 51.76375 276.340059 
L 721.36375 276.340059 
" clip-path="url(#paf67cc432b)" style="fill: none; stroke-dasharray: 1.85,0.8; stroke-dashoffset: 0; stroke: #b2b2b2; stroke-width: 0.5"/>
     </g>
     <g id="line2d_20">
      <g>
       <use xlink:href="#m486eead45f" x="51.76375" y="276.340059" style="stroke: #000000; stroke-width: 0.8"/>
      </g>
     </g>
     <g id="text_11">
      <!-- 500 -->
      <g transform="translate(29.17625 280.139277)scale(0.1 -0.1)">
       <use xlink:href="#DejaVuSans-35"/>
       <use xlink:href="#DejaVuSans-30" x="63.623047"/>
       <use xlink:href="#DejaVuSans-30" x="127.246094"/>
      </g>
     </g>
    </g>
    <g id="ytick_3">
     <g id="line2d_21">
      <path d="M 51.76375 217.203822 
L 721.36375 217.203822 
" clip-path="url(#paf67cc432b)" style="fill: none; stroke-dasharray: 1.85,0.8; stroke-dashoffset: 0; stroke: #b2b2b2; stroke-width: 0.5"/>
     </g>
     <g id="line2d_22">
      <g>
       <use xlink:href="#m486eead45f" x="51.76375" y="217.203822" style="stroke: #000000; stroke-width: 0.8"/>
      </g>
     </g>
     <g id="text_12">
      <!-- 1000 -->
      <g transform="translate(22.81375 221.003041)scale(0.1 -0.1)">
       <use xlink:href="#DejaVuSans-31"/>
       <use xlink:href="#DejaVuSans-30" x="63.623047"/>
       <use xlink:href="#DejaVuSans-30" x="127.246094"/>
       <use xlink:href="#DejaVuSans-30" x="190.869141"/>
      </g>
     </g>
    </g>
    <g id="ytick_4">
     <g id="line2d_23">
      <path d="M 51.76375 158.067585 
L 721.36375 158.067585 
" clip-path="url(#paf67cc432b)" style="fill: none; stroke-dasharray: 1.85,0.8; stroke-dashoffset: 0; stroke: #b2b2b2; stroke-width: 0.5"/>
     </g>
     <g id="line2d_24">
      <g>
       <use xlink:href="#m486eead45f" x="51.76375" y="158.067585" style="stroke: #000000; stroke-width: 0.8"/>
      </g>
     </g>
     <g id="text_13">
      <!-- 1500 -->
      <g transform="translate(22.81375 161.866804)scale(0.1 -0.1)">
       <use xlink:href="#DejaVuSans-31"/>
       <use xlink:href="#DejaVuSans-35" x="63.623047"/>
       <use xlink:href="#DejaVuSans-30" x="127.246094"/>
       <use xlink:href="#DejaVuSans-30" x="190.869141"/>
      </g>
     </g>
    </g>
    <g id="ytick_5">
     <g id="line2d_25">
      <path d="M 51.76375 98.931349 
L 721.36375 98.931349 
" clip-path="url(#paf67cc432b)" style="fill: none; stroke-dasharray: 1.85,0.8; stroke-dashoffset: 0; stroke: #b2b2b2; stroke-width: 0.5"/>
     </g>
     <g id="line2d_26">
      <g>
       <use xlink:href="#m486eead45f" x="51.76375" y="98.931349" style="stroke: #000000; stroke-width: 0.8"/>
      </g>
     </g>
     <g id="text_14">
      <!-- 2000 -->
      <g transform="translate(22.81375 102.730567)scale(0.1 -0.1)">
       <use xlink:href="#DejaVuSans-32"/>
       <use xlink:href="#DejaVuSans-30" x="63.623047"/>
       <use xlink:href="#DejaVuSans-30" x="127.246094"/>
       <use xlink:href="#DejaVuSans-30" x="190.869141"/>
      </g>
     </g>
    </g>
    <g id="ytick_6">
     <g id="line2d_27">
      <path d="M 51.76375 39.795112 
L 721.36375 39.795112 
" clip-path="url(#paf67cc432b)" style="fill: none; stroke-dasharray: 1.85,0.8; stroke-dashoffset: 0; stroke: #b2b2b2; stroke-width: 0.5"/>
     </g>
     <g id="line2d_28">
      <g>
       <use xlink:href="#m486eead45f" x="51.76375" y="39.795112" style="stroke: #000000; stroke-width: 0.8"/>
      </g>
     </g>
     <g id="text_15">
      <!-- 2500 -->
      <g transform="translate(22.81375 43.594331)scale(0.1 -0.1)">
       <use xlink:href="#DejaVuSans-32"/>
       <use xlink:href="#DejaVuSans-35" x="63.623047"/>
       <use xlink:href="#DejaVuSans-30" x="127.246094"/>
       <use xlink:href="#DejaVuSans-30" x="190.869141"/>
      </g>
     </g>
    </g>
    <g id="text_16">
     <!-- sales -->
     <g transform="translate(16.318125 202.508625)rotate(-90)scale(0.12 -0.12)">
      <defs>
       <path id="DejaVuSans-73" d="M 2834 3397 
L 2834 2853 
Q 2591 2978 2328 3040 
Q 2066 3103 1784 3103 
Q 1356 3103 1142 2972 
Q 928 2841 928 2578 
Q 928 2378 1081 2264 
Q 1234 2150 1697 2047 
L 1894 2003 
Q 2506 1872 2764 1633 
Q 3022 1394 3022 966 
Q 3022 478 2636 193 
Q 2250 -91 1575 -91 
Q 1294 -91 989 -36 
Q 684 19 347 128 
L 347 722 
Q 666 556 975 473 
Q 1284 391 1588 391 
Q 1994 391 2212 530 
Q 2431 669 2431 922 
Q 2431 1156 2273 1281 
Q 2116 1406 1581 1522 
L 1381 1569 
Q 847 1681 609 1914 
Q 372 2147 372 2553 
Q 372 3047 722 3315 
Q 1072 3584 1716 3584 
Q 2034 3584 2315 3537 
Q 2597 3491 2834 3397 
z
" transform="scale(0.015625)"/>
       <path id="DejaVuSans-6c" d="M 603 4863 
L 1178 4863 
L 1178 0 
L 603 0 
L 603 4863 
z
" transform="scale(0.015625)"/>
      </defs>
      <use xlink:href="#DejaVuSans-73"/>
      <use xlink:href="#DejaVuSans-61" x="52.099609"/>
      <use xlink:href="#DejaVuSans-6c" x="113.378906"/>
      <use xlink:href="#DejaVuSans-65" x="141.162109"/>
      <use xlink:href="#DejaVuSans-73" x="202.685547"/>
     </g>
    </g>
   </g>
   <g id="line2d_29">
    <path d="M 82.200114 328.734764 
L 87.942824 328.616492 
L 93.685534 329.207854 
L 99.428244 331.218486 
L 105.170954 332.046394 
L 110.913664 329.089582 
L 116.656374 330.627124 
L 122.399084 325.541408 
L 128.141795 326.13277 
L 133.884505 327.670312 
L 139.627215 329.207854 
L 145.369925 329.799217 
L 151.112635 331.928121 
L 156.855345 328.379947 
L 162.598055 328.616492 
L 168.340765 326.960677 
L 174.083476 327.315495 
L 179.826186 323.767321 
L 185.568896 326.724132 
L 191.311606 330.035762 
L 197.054316 329.207854 
L 202.797026 328.379947 
L 208.539736 325.896225 
L 214.282446 324.24041 
L 220.025157 325.65968 
L 225.767867 326.13277 
L 231.510577 328.379947 
L 237.253287 327.906857 
L 242.995997 322.229778 
L 248.738707 321.047054 
L 254.481417 324.358683 
L 260.224127 327.788585 
L 265.966837 322.939413 
L 271.709548 329.562672 
L 277.452258 326.251043 
L 283.194968 322.702868 
L 288.937678 324.950045 
L 294.680388 323.885593 
L 300.423098 326.251043 
L 306.165808 326.724132 
L 311.908518 327.07895 
L 317.651229 328.02513 
L 323.393939 324.476955 
L 329.136649 328.971309 
L 334.879359 325.304863 
L 340.622069 322.466323 
L 346.364779 323.649048 
L 352.107489 328.971309 
L 357.850199 327.55204 
L 363.59291 324.476955 
L 369.33562 321.993233 
L 375.07833 323.530776 
L 380.82104 327.433767 
L 386.56375 327.315495 
L 392.30646 328.734764 
L 398.04917 330.035762 
L 403.79188 324.831773 
L 409.53459 323.294231 
L 415.277301 325.896225 
L 421.020011 325.541408 
L 426.762721 326.842405 
L 432.505431 331.218486 
L 438.248141 328.143402 
L 443.990851 331.336759 
L 449.733561 327.07895 
L 455.476271 323.412503 
L 461.218982 322.229778 
L 466.961692 323.175958 
L 472.704402 329.799217 
L 478.447112 327.315495 
L 484.189822 323.649048 
L 489.932532 321.874961 
L 495.675242 323.294231 
L 501.417952 326.251043 
L 507.160663 322.702868 
L 512.903373 329.207854 
L 518.646083 328.49822 
L 524.388793 327.670312 
L 530.131503 323.885593 
L 535.874213 322.229778 
L 541.616923 322.348051 
L 547.359633 324.003866 
L 553.102343 328.02513 
L 558.845054 328.379947 
L 564.587764 325.423135 
L 570.330474 324.003866 
L 576.073184 323.057686 
L 581.815894 322.939413 
L 587.558604 324.122138 
L 593.301314 329.562672 
L 599.044024 326.842405 
L 604.786735 323.885593 
L 610.529445 322.111506 
L 616.272155 323.294231 
L 622.014865 322.584596 
L 627.757575 324.7135 
L 633.500285 330.981941 
L 639.242995 331.218486 
L 644.985705 326.13277 
L 650.728416 321.993233 
L 656.471126 324.7135 
L 662.213836 327.670312 
L 667.956546 328.143402 
L 673.699256 329.326127 
L 679.441966 330.154034 
L 685.184676 325.304863 
L 690.927386 323.885593 
" clip-path="url(#paf67cc432b)" style="fill: none; stroke: #000000; stroke-opacity: 0.8; stroke-width: 2; stroke-linecap: square"/>
    <defs>
     <path id="m687d88eda1" d="M 0 2 
C 0.530406 2 1.03916 1.789267 1.414214 1.414214 
C 1.789267 1.03916 2 0.530406 2 0 
C 2 -0.530406 1.789267 -1.03916 1.414214 -1.414214 
C 1.03916 -1.789267 0.530406 -2 0 -2 
C -0.530406 -2 -1.03916 -1.789267 -1.414214 -1.414214 
C -1.789267 -1.03916 -2 -0.530406 -2 0 
C -2 0.530406 -1.789267 1.03916 -1.414214 1.414214 
C -1.03916 1.789267 -0.530406 2 0 2 
z
" style="stroke: #000000; stroke-opacity: 0.8; stroke-width: 0.75"/>
    </defs>
    <g clip-path="url(#paf67cc432b)">
     <use xlink:href="#m687d88eda1" x="82.200114" y="328.734764" style="fill-opacity: 0.8; stroke: #000000; stroke-opacity: 0.8; stroke-width: 0.75"/>
     <use xlink:href="#m687d88eda1" x="87.942824" y="328.616492" style="fill-opacity: 0.8; stroke: #000000; stroke-opacity: 0.8; stroke-width: 0.75"/>
     <use xlink:href="#m687d88eda1" x="93.685534" y="329.207854" style="fill-opacity: 0.8; stroke: #000000; stroke-opacity: 0.8; stroke-width: 0.75"/>
     <use xlink:href="#m687d88eda1" x="99.428244" y="331.218486" style="fill-opacity: 0.8; stroke: #000000; stroke-opacity: 0.8; stroke-width: 0.75"/>
     <use xlink:href="#m687d88eda1" x="105.170954" y="332.046394" style="fill-opacity: 0.8; stroke: #000000; stroke-opacity: 0.8; stroke-width: 0.75"/>
     <use xlink:href="#m687d88eda1" x="110.913664" y="329.089582" style="fill-opacity: 0.8; stroke: #000000; stroke-opacity: 0.8; stroke-width: 0.75"/>
     <use xlink:href="#m687d88eda1" x="116.656374" y="330.627124" style="fill-opacity: 0.8; stroke: #000000; stroke-opacity: 0.8; stroke-width: 0.75"/>
     <use xlink:href="#m687d88eda1" x="122.399084" y="325.541408" style="fill-opacity: 0.8; stroke: #000000; stroke-opacity: 0.8; stroke-width: 0.75"/>
     <use xlink:href="#m687d88eda1" x="128.141795" y="326.13277" style="fill-opacity: 0.8; stroke: #000000; stroke-opacity: 0.8; stroke-width: 0.75"/>
     <use xlink:href="#m687d88eda1" x="133.884505" y="327.670312" style="fill-opacity: 0.8; stroke: #000000; stroke-opacity: 0.8; stroke-width: 0.75"/>
     <use xlink:href="#m687d88eda1" x="139.627215" y="329.207854" style="fill-opacity: 0.8; stroke: #000000; stroke-opacity: 0.8; stroke-width: 0.75"/>
     <use xlink:href="#m687d88eda1" x="145.369925" y="329.799217" style="fill-opacity: 0.8; stroke: #000000; stroke-opacity: 0.8; stroke-width: 0.75"/>
     <use xlink:href="#m687d88eda1" x="151.112635" y="331.928121" style="fill-opacity: 0.8; stroke: #000000; stroke-opacity: 0.8; stroke-width: 0.75"/>
     <use xlink:href="#m687d88eda1" x="156.855345" y="328.379947" style="fill-opacity: 0.8; stroke: #000000; stroke-opacity: 0.8; stroke-width: 0.75"/>
     <use xlink:href="#m687d88eda1" x="162.598055" y="328.616492" style="fill-opacity: 0.8; stroke: #000000; stroke-opacity: 0.8; stroke-width: 0.75"/>
     <use xlink:href="#m687d88eda1" x="168.340765" y="326.960677" style="fill-opacity: 0.8; stroke: #000000; stroke-opacity: 0.8; stroke-width: 0.75"/>
     <use xlink:href="#m687d88eda1" x="174.083476" y="327.315495" style="fill-opacity: 0.8; stroke: #000000; stroke-opacity: 0.8; stroke-width: 0.75"/>
     <use xlink:href="#m687d88eda1" x="179.826186" y="323.767321" style="fill-opacity: 0.8; stroke: #000000; stroke-opacity: 0.8; stroke-width: 0.75"/>
     <use xlink:href="#m687d88eda1" x="185.568896" y="326.724132" style="fill-opacity: 0.8; stroke: #000000; stroke-opacity: 0.8; stroke-width: 0.75"/>
     <use xlink:href="#m687d88eda1" x="191.311606" y="330.035762" style="fill-opacity: 0.8; stroke: #000000; stroke-opacity: 0.8; stroke-width: 0.75"/>
     <use xlink:href="#m687d88eda1" x="197.054316" y="329.207854" style="fill-opacity: 0.8; stroke: #000000; stroke-opacity: 0.8; stroke-width: 0.75"/>
     <use xlink:href="#m687d88eda1" x="202.797026" y="328.379947" style="fill-opacity: 0.8; stroke: #000000; stroke-opacity: 0.8; stroke-width: 0.75"/>
     <use xlink:href="#m687d88eda1" x="208.539736" y="325.896225" style="fill-opacity: 0.8; stroke: #000000; stroke-opacity: 0.8; stroke-width: 0.75"/>
     <use xlink:href="#m687d88eda1" x="214.282446" y="324.24041" style="fill-opacity: 0.8; stroke: #000000; stroke-opacity: 0.8; stroke-width: 0.75"/>
     <use xlink:href="#m687d88eda1" x="220.025157" y="325.65968" style="fill-opacity: 0.8; stroke: #000000; stroke-opacity: 0.8; stroke-width: 0.75"/>
     <use xlink:href="#m687d88eda1" x="225.767867" y="326.13277" style="fill-opacity: 0.8; stroke: #000000; stroke-opacity: 0.8; stroke-width: 0.75"/>
     <use xlink:href="#m687d88eda1" x="231.510577" y="328.379947" style="fill-opacity: 0.8; stroke: #000000; stroke-opacity: 0.8; stroke-width: 0.75"/>
     <use xlink:href="#m687d88eda1" x="237.253287" y="327.906857" style="fill-opacity: 0.8; stroke: #000000; stroke-opacity: 0.8; stroke-width: 0.75"/>
     <use xlink:href="#m687d88eda1" x="242.995997" y="322.229778" style="fill-opacity: 0.8; stroke: #000000; stroke-opacity: 0.8; stroke-width: 0.75"/>
     <use xlink:href="#m687d88eda1" x="248.738707" y="321.047054" style="fill-opacity: 0.8; stroke: #000000; stroke-opacity: 0.8; stroke-width: 0.75"/>
     <use xlink:href="#m687d88eda1" x="254.481417" y="324.358683" style="fill-opacity: 0.8; stroke: #000000; stroke-opacity: 0.8; stroke-width: 0.75"/>
     <use xlink:href="#m687d88eda1" x="260.224127" y="327.788585" style="fill-opacity: 0.8; stroke: #000000; stroke-opacity: 0.8; stroke-width: 0.75"/>
     <use xlink:href="#m687d88eda1" x="265.966837" y="322.939413" style="fill-opacity: 0.8; stroke: #000000; stroke-opacity: 0.8; stroke-width: 0.75"/>
     <use xlink:href="#m687d88eda1" x="271.709548" y="329.562672" style="fill-opacity: 0.8; stroke: #000000; stroke-opacity: 0.8; stroke-width: 0.75"/>
     <use xlink:href="#m687d88eda1" x="277.452258" y="326.251043" style="fill-opacity: 0.8; stroke: #000000; stroke-opacity: 0.8; stroke-width: 0.75"/>
     <use xlink:href="#m687d88eda1" x="283.194968" y="322.702868" style="fill-opacity: 0.8; stroke: #000000; stroke-opacity: 0.8; stroke-width: 0.75"/>
     <use xlink:href="#m687d88eda1" x="288.937678" y="324.950045" style="fill-opacity: 0.8; stroke: #000000; stroke-opacity: 0.8; stroke-width: 0.75"/>
     <use xlink:href="#m687d88eda1" x="294.680388" y="323.885593" style="fill-opacity: 0.8; stroke: #000000; stroke-opacity: 0.8; stroke-width: 0.75"/>
     <use xlink:href="#m687d88eda1" x="300.423098" y="326.251043" style="fill-opacity: 0.8; stroke: #000000; stroke-opacity: 0.8; stroke-width: 0.75"/>
     <use xlink:href="#m687d88eda1" x="306.165808" y="326.724132" style="fill-opacity: 0.8; stroke: #000000; stroke-opacity: 0.8; stroke-width: 0.75"/>
     <use xlink:href="#m687d88eda1" x="311.908518" y="327.07895" style="fill-opacity: 0.8; stroke: #000000; stroke-opacity: 0.8; stroke-width: 0.75"/>
     <use xlink:href="#m687d88eda1" x="317.651229" y="328.02513" style="fill-opacity: 0.8; stroke: #000000; stroke-opacity: 0.8; stroke-width: 0.75"/>
     <use xlink:href="#m687d88eda1" x="323.393939" y="324.476955" style="fill-opacity: 0.8; stroke: #000000; stroke-opacity: 0.8; stroke-width: 0.75"/>
     <use xlink:href="#m687d88eda1" x="329.136649" y="328.971309" style="fill-opacity: 0.8; stroke: #000000; stroke-opacity: 0.8; stroke-width: 0.75"/>
     <use xlink:href="#m687d88eda1" x="334.879359" y="325.304863" style="fill-opacity: 0.8; stroke: #000000; stroke-opacity: 0.8; stroke-width: 0.75"/>
     <use xlink:href="#m687d88eda1" x="340.622069" y="322.466323" style="fill-opacity: 0.8; stroke: #000000; stroke-opacity: 0.8; stroke-width: 0.75"/>
     <use xlink:href="#m687d88eda1" x="346.364779" y="323.649048" style="fill-opacity: 0.8; stroke: #000000; stroke-opacity: 0.8; stroke-width: 0.75"/>
     <use xlink:href="#m687d88eda1" x="352.107489" y="328.971309" style="fill-opacity: 0.8; stroke: #000000; stroke-opacity: 0.8; stroke-width: 0.75"/>
     <use xlink:href="#m687d88eda1" x="357.850199" y="327.55204" style="fill-opacity: 0.8; stroke: #000000; stroke-opacity: 0.8; stroke-width: 0.75"/>
     <use xlink:href="#m687d88eda1" x="363.59291" y="324.476955" style="fill-opacity: 0.8; stroke: #000000; stroke-opacity: 0.8; stroke-width: 0.75"/>
     <use xlink:href="#m687d88eda1" x="369.33562" y="321.993233" style="fill-opacity: 0.8; stroke: #000000; stroke-opacity: 0.8; stroke-width: 0.75"/>
     <use xlink:href="#m687d88eda1" x="375.07833" y="323.530776" style="fill-opacity: 0.8; stroke: #000000; stroke-opacity: 0.8; stroke-width: 0.75"/>
     <use xlink:href="#m687d88eda1" x="380.82104" y="327.433767" style="fill-opacity: 0.8; stroke: #000000; stroke-opacity: 0.8; stroke-width: 0.75"/>
     <use xlink:href="#m687d88eda1" x="386.56375" y="327.315495" style="fill-opacity: 0.8; stroke: #000000; stroke-opacity: 0.8; stroke-width: 0.75"/>
     <use xlink:href="#m687d88eda1" x="392.30646" y="328.734764" style="fill-opacity: 0.8; stroke: #000000; stroke-opacity: 0.8; stroke-width: 0.75"/>
     <use xlink:href="#m687d88eda1" x="398.04917" y="330.035762" style="fill-opacity: 0.8; stroke: #000000; stroke-opacity: 0.8; stroke-width: 0.75"/>
     <use xlink:href="#m687d88eda1" x="403.79188" y="324.831773" style="fill-opacity: 0.8; stroke: #000000; stroke-opacity: 0.8; stroke-width: 0.75"/>
     <use xlink:href="#m687d88eda1" x="409.53459" y="323.294231" style="fill-opacity: 0.8; stroke: #000000; stroke-opacity: 0.8; stroke-width: 0.75"/>
     <use xlink:href="#m687d88eda1" x="415.277301" y="325.896225" style="fill-opacity: 0.8; stroke: #000000; stroke-opacity: 0.8; stroke-width: 0.75"/>
     <use xlink:href="#m687d88eda1" x="421.020011" y="325.541408" style="fill-opacity: 0.8; stroke: #000000; stroke-opacity: 0.8; stroke-width: 0.75"/>
     <use xlink:href="#m687d88eda1" x="426.762721" y="326.842405" style="fill-opacity: 0.8; stroke: #000000; stroke-opacity: 0.8; stroke-width: 0.75"/>
     <use xlink:href="#m687d88eda1" x="432.505431" y="331.218486" style="fill-opacity: 0.8; stroke: #000000; stroke-opacity: 0.8; stroke-width: 0.75"/>
     <use xlink:href="#m687d88eda1" x="438.248141" y="328.143402" style="fill-opacity: 0.8; stroke: #000000; stroke-opacity: 0.8; stroke-width: 0.75"/>
     <use xlink:href="#m687d88eda1" x="443.990851" y="331.336759" style="fill-opacity: 0.8; stroke: #000000; stroke-opacity: 0.8; stroke-width: 0.75"/>
     <use xlink:href="#m687d88eda1" x="449.733561" y="327.07895" style="fill-opacity: 0.8; stroke: #000000; stroke-opacity: 0.8; stroke-width: 0.75"/>
     <use xlink:href="#m687d88eda1" x="455.476271" y="323.412503" style="fill-opacity: 0.8; stroke: #000000; stroke-opacity: 0.8; stroke-width: 0.75"/>
     <use xlink:href="#m687d88eda1" x="461.218982" y="322.229778" style="fill-opacity: 0.8; stroke: #000000; stroke-opacity: 0.8; stroke-width: 0.75"/>
     <use xlink:href="#m687d88eda1" x="466.961692" y="323.175958" style="fill-opacity: 0.8; stroke: #000000; stroke-opacity: 0.8; stroke-width: 0.75"/>
     <use xlink:href="#m687d88eda1" x="472.704402" y="329.799217" style="fill-opacity: 0.8; stroke: #000000; stroke-opacity: 0.8; stroke-width: 0.75"/>
     <use xlink:href="#m687d88eda1" x="478.447112" y="327.315495" style="fill-opacity: 0.8; stroke: #000000; stroke-opacity: 0.8; stroke-width: 0.75"/>
     <use xlink:href="#m687d88eda1" x="484.189822" y="323.649048" style="fill-opacity: 0.8; stroke: #000000; stroke-opacity: 0.8; stroke-width: 0.75"/>
     <use xlink:href="#m687d88eda1" x="489.932532" y="321.874961" style="fill-opacity: 0.8; stroke: #000000; stroke-opacity: 0.8; stroke-width: 0.75"/>
     <use xlink:href="#m687d88eda1" x="495.675242" y="323.294231" style="fill-opacity: 0.8; stroke: #000000; stroke-opacity: 0.8; stroke-width: 0.75"/>
     <use xlink:href="#m687d88eda1" x="501.417952" y="326.251043" style="fill-opacity: 0.8; stroke: #000000; stroke-opacity: 0.8; stroke-width: 0.75"/>
     <use xlink:href="#m687d88eda1" x="507.160663" y="322.702868" style="fill-opacity: 0.8; stroke: #000000; stroke-opacity: 0.8; stroke-width: 0.75"/>
     <use xlink:href="#m687d88eda1" x="512.903373" y="329.207854" style="fill-opacity: 0.8; stroke: #000000; stroke-opacity: 0.8; stroke-width: 0.75"/>
     <use xlink:href="#m687d88eda1" x="518.646083" y="328.49822" style="fill-opacity: 0.8; stroke: #000000; stroke-opacity: 0.8; stroke-width: 0.75"/>
     <use xlink:href="#m687d88eda1" x="524.388793" y="327.670312" style="fill-opacity: 0.8; stroke: #000000; stroke-opacity: 0.8; stroke-width: 0.75"/>
     <use xlink:href="#m687d88eda1" x="530.131503" y="323.885593" style="fill-opacity: 0.8; stroke: #000000; stroke-opacity: 0.8; stroke-width: 0.75"/>
     <use xlink:href="#m687d88eda1" x="535.874213" y="322.229778" style="fill-opacity: 0.8; stroke: #000000; stroke-opacity: 0.8; stroke-width: 0.75"/>
     <use xlink:href="#m687d88eda1" x="541.616923" y="322.348051" style="fill-opacity: 0.8; stroke: #000000; stroke-opacity: 0.8; stroke-width: 0.75"/>
     <use xlink:href="#m687d88eda1" x="547.359633" y="324.003866" style="fill-opacity: 0.8; stroke: #000000; stroke-opacity: 0.8; stroke-width: 0.75"/>
     <use xlink:href="#m687d88eda1" x="553.102343" y="328.02513" style="fill-opacity: 0.8; stroke: #000000; stroke-opacity: 0.8; stroke-width: 0.75"/>
     <use xlink:href="#m687d88eda1" x="558.845054" y="328.379947" style="fill-opacity: 0.8; stroke: #000000; stroke-opacity: 0.8; stroke-width: 0.75"/>
     <use xlink:href="#m687d88eda1" x="564.587764" y="325.423135" style="fill-opacity: 0.8; stroke: #000000; stroke-opacity: 0.8; stroke-width: 0.75"/>
     <use xlink:href="#m687d88eda1" x="570.330474" y="324.003866" style="fill-opacity: 0.8; stroke: #000000; stroke-opacity: 0.8; stroke-width: 0.75"/>
     <use xlink:href="#m687d88eda1" x="576.073184" y="323.057686" style="fill-opacity: 0.8; stroke: #000000; stroke-opacity: 0.8; stroke-width: 0.75"/>
     <use xlink:href="#m687d88eda1" x="581.815894" y="322.939413" style="fill-opacity: 0.8; stroke: #000000; stroke-opacity: 0.8; stroke-width: 0.75"/>
     <use xlink:href="#m687d88eda1" x="587.558604" y="324.122138" style="fill-opacity: 0.8; stroke: #000000; stroke-opacity: 0.8; stroke-width: 0.75"/>
     <use xlink:href="#m687d88eda1" x="593.301314" y="329.562672" style="fill-opacity: 0.8; stroke: #000000; stroke-opacity: 0.8; stroke-width: 0.75"/>
     <use xlink:href="#m687d88eda1" x="599.044024" y="326.842405" style="fill-opacity: 0.8; stroke: #000000; stroke-opacity: 0.8; stroke-width: 0.75"/>
     <use xlink:href="#m687d88eda1" x="604.786735" y="323.885593" style="fill-opacity: 0.8; stroke: #000000; stroke-opacity: 0.8; stroke-width: 0.75"/>
     <use xlink:href="#m687d88eda1" x="610.529445" y="322.111506" style="fill-opacity: 0.8; stroke: #000000; stroke-opacity: 0.8; stroke-width: 0.75"/>
     <use xlink:href="#m687d88eda1" x="616.272155" y="323.294231" style="fill-opacity: 0.8; stroke: #000000; stroke-opacity: 0.8; stroke-width: 0.75"/>
     <use xlink:href="#m687d88eda1" x="622.014865" y="322.584596" style="fill-opacity: 0.8; stroke: #000000; stroke-opacity: 0.8; stroke-width: 0.75"/>
     <use xlink:href="#m687d88eda1" x="627.757575" y="324.7135" style="fill-opacity: 0.8; stroke: #000000; stroke-opacity: 0.8; stroke-width: 0.75"/>
     <use xlink:href="#m687d88eda1" x="633.500285" y="330.981941" style="fill-opacity: 0.8; stroke: #000000; stroke-opacity: 0.8; stroke-width: 0.75"/>
     <use xlink:href="#m687d88eda1" x="639.242995" y="331.218486" style="fill-opacity: 0.8; stroke: #000000; stroke-opacity: 0.8; stroke-width: 0.75"/>
     <use xlink:href="#m687d88eda1" x="644.985705" y="326.13277" style="fill-opacity: 0.8; stroke: #000000; stroke-opacity: 0.8; stroke-width: 0.75"/>
     <use xlink:href="#m687d88eda1" x="650.728416" y="321.993233" style="fill-opacity: 0.8; stroke: #000000; stroke-opacity: 0.8; stroke-width: 0.75"/>
     <use xlink:href="#m687d88eda1" x="656.471126" y="324.7135" style="fill-opacity: 0.8; stroke: #000000; stroke-opacity: 0.8; stroke-width: 0.75"/>
     <use xlink:href="#m687d88eda1" x="662.213836" y="327.670312" style="fill-opacity: 0.8; stroke: #000000; stroke-opacity: 0.8; stroke-width: 0.75"/>
     <use xlink:href="#m687d88eda1" x="667.956546" y="328.143402" style="fill-opacity: 0.8; stroke: #000000; stroke-opacity: 0.8; stroke-width: 0.75"/>
     <use xlink:href="#m687d88eda1" x="673.699256" y="329.326127" style="fill-opacity: 0.8; stroke: #000000; stroke-opacity: 0.8; stroke-width: 0.75"/>
     <use xlink:href="#m687d88eda1" x="679.441966" y="330.154034" style="fill-opacity: 0.8; stroke: #000000; stroke-opacity: 0.8; stroke-width: 0.75"/>
     <use xlink:href="#m687d88eda1" x="685.184676" y="325.304863" style="fill-opacity: 0.8; stroke: #000000; stroke-opacity: 0.8; stroke-width: 0.75"/>
     <use xlink:href="#m687d88eda1" x="690.927386" y="323.885593" style="fill-opacity: 0.8; stroke: #000000; stroke-opacity: 0.8; stroke-width: 0.75"/>
    </g>
   </g>
   <g id="line2d_30">
    <path d="M 82.200114 335.476295 
L 87.942824 335.476295 
L 93.685534 335.476295 
L 99.428244 335.476295 
L 105.170954 335.476295 
L 110.913664 335.476295 
L 116.656374 335.476295 
L 122.399084 335.476295 
L 128.141795 335.476295 
L 133.884505 335.476295 
L 139.627215 335.476295 
L 145.369925 335.476295 
L 151.112635 335.476295 
L 156.855345 335.476295 
L 162.598055 335.476295 
L 168.340765 335.476295 
L 174.083476 335.476295 
L 179.826186 335.476295 
L 185.568896 335.476295 
L 191.311606 335.476295 
L 197.054316 335.476295 
L 202.797026 335.476295 
L 208.539736 335.476295 
L 214.282446 335.476295 
L 220.025157 335.476295 
L 225.767867 335.476295 
L 231.510577 335.476295 
L 237.253287 335.476295 
L 242.995997 335.476295 
L 248.738707 335.476295 
L 254.481417 335.476295 
L 260.224127 335.476295 
L 265.966837 335.476295 
L 271.709548 335.476295 
L 277.452258 335.476295 
L 283.194968 335.476295 
L 288.937678 335.476295 
L 294.680388 335.476295 
L 300.423098 335.476295 
L 306.165808 335.476295 
L 311.908518 335.476295 
L 317.651229 335.476295 
L 323.393939 335.476295 
L 329.136649 335.476295 
L 334.879359 335.476295 
L 340.622069 335.476295 
L 346.364779 335.476295 
L 352.107489 335.476295 
L 357.850199 335.476295 
L 363.59291 335.476295 
L 369.33562 335.476295 
L 375.07833 335.476295 
L 380.82104 335.476295 
L 386.56375 335.476295 
L 392.30646 335.476295 
L 398.04917 335.476295 
L 403.79188 335.476295 
L 409.53459 335.476295 
L 415.277301 335.476295 
L 421.020011 335.476295 
L 426.762721 335.476295 
L 432.505431 335.476295 
L 438.248141 335.476295 
L 443.990851 335.476295 
L 449.733561 335.476295 
L 455.476271 335.476295 
L 461.218982 335.476295 
L 466.961692 335.476295 
L 472.704402 335.476295 
L 478.447112 335.476295 
L 484.189822 335.476295 
L 489.932532 335.476295 
L 495.675242 335.476295 
L 501.417952 335.476295 
L 507.160663 335.476295 
L 512.903373 335.476295 
L 518.646083 335.476295 
L 524.388793 335.476295 
L 530.131503 335.476295 
L 535.874213 335.476295 
L 541.616923 335.476295 
L 547.359633 335.476295 
L 553.102343 335.476295 
L 558.845054 335.476295 
L 564.587764 335.476295 
L 570.330474 335.476295 
L 576.073184 335.476295 
L 581.815894 335.476295 
L 587.558604 335.476295 
L 593.301314 335.476295 
L 599.044024 335.476295 
L 604.786735 335.476295 
L 610.529445 335.476295 
L 616.272155 335.476295 
L 622.014865 335.476295 
L 627.757575 335.476295 
L 633.500285 335.476295 
L 639.242995 335.476295 
L 644.985705 335.476295 
L 650.728416 335.476295 
L 656.471126 335.476295 
L 662.213836 335.476295 
L 667.956546 335.476295 
L 673.699256 335.476295 
L 679.441966 335.476295 
L 685.184676 335.476295 
L 690.927386 335.476295 
" clip-path="url(#paf67cc432b)" style="fill: none; stroke: #348abd; stroke-opacity: 0; stroke-width: 2; stroke-linecap: square"/>
   </g>
   <g id="line2d_31">
    <path d="M 82.200114 322.466323 
L 87.942824 123.058933 
L 93.685534 64.750604 
L 99.428244 138.789172 
L 105.170954 77.878848 
L 110.913664 96.092809 
L 116.656374 76.932669 
L 122.399084 133.821728 
L 128.141795 121.166574 
L 133.884505 79.061573 
L 139.627215 133.821728 
L 145.369925 93.72736 
L 151.112635 73.975857 
L 156.855345 86.985829 
L 162.598055 118.446307 
L 168.340765 98.931349 
L 174.083476 100.823708 
L 179.826186 149.078877 
L 185.568896 84.265562 
L 191.311606 77.524031 
L 197.054316 63.804424 
L 202.797026 140.918077 
L 208.539736 97.866896 
L 214.282446 103.898792 
L 220.025157 100.232346 
L 225.767867 79.41639 
L 231.510577 88.050281 
L 237.253287 89.587823 
L 242.995997 138.19781 
L 248.738707 57.772528 
L 254.481417 87.340646 
L 260.224127 143.165254 
L 265.966837 100.705436 
L 271.709548 78.233666 
L 277.452258 63.213062 
L 283.194968 131.811096 
L 288.937678 116.908765 
L 294.680388 76.104761 
L 300.423098 147.068245 
L 306.165808 116.790492 
L 311.908518 87.104101 
L 317.651229 38.967205 
L 323.393939 118.209762 
L 329.136649 122.231026 
L 334.879359 67.707416 
L 340.622069 163.035029 
L 346.364779 93.017725 
L 352.107489 117.027037 
L 357.850199 71.846952 
L 363.59291 140.326714 
L 369.33562 64.514059 
L 375.07833 57.654255 
L 380.82104 115.371222 
L 386.56375 113.597135 
L 392.30646 87.222374 
L 398.04917 84.502107 
L 403.79188 137.015085 
L 409.53459 125.30611 
L 415.277301 97.393806 
L 421.020011 122.704116 
L 426.762721 95.028357 
L 432.505431 92.071545 
L 438.248141 90.297458 
L 443.990851 126.961925 
L 449.733561 102.716068 
L 455.476271 119.510759 
L 461.218982 132.875548 
L 466.961692 103.070885 
L 472.704402 99.759256 
L 478.447112 83.437655 
L 484.189822 149.19715 
L 489.932532 116.908765 
L 495.675242 128.262922 
L 501.417952 159.841672 
L 507.160663 100.587163 
L 512.903373 108.038329 
L 518.646083 86.394466 
L 524.388793 160.433035 
L 530.131503 125.542655 
L 535.874213 122.467571 
L 541.616923 166.938021 
L 547.359633 104.25361 
L 553.102343 144.702796 
L 558.845054 101.415071 
L 564.587764 145.648976 
L 570.330474 148.960605 
L 576.073184 90.297458 
L 581.815894 173.206462 
L 587.558604 140.799804 
L 593.301314 138.907445 
L 599.044024 109.221054 
L 604.786735 174.980549 
L 610.529445 121.166574 
L 616.272155 129.209102 
L 622.014865 175.808456 
L 627.757575 123.88684 
L 633.500285 143.874888 
L 639.242995 110.285506 
L 644.985705 172.14201 
L 650.728416 151.207782 
L 656.471126 126.72538 
L 662.213836 193.785872 
L 667.956546 163.744664 
L 673.699256 150.498147 
L 679.441966 129.682192 
L 685.184676 178.765268 
L 690.927386 175.690184 
" clip-path="url(#paf67cc432b)" style="fill: none; stroke: #348abd; stroke-opacity: 0; stroke-width: 2; stroke-linecap: square"/>
   </g>
   <g id="line2d_32">
    <path d="M 82.200114 330.508852 
L 87.942824 335.476295 
L 93.685534 335.476295 
L 99.428244 335.476295 
L 105.170954 335.476295 
L 110.913664 335.476295 
L 116.656374 335.476295 
L 122.399084 335.476295 
L 128.141795 335.239751 
L 133.884505 335.476295 
L 139.627215 335.476295 
L 145.369925 335.476295 
L 151.112635 335.476295 
L 156.855345 335.476295 
L 162.598055 335.476295 
L 168.340765 335.476295 
L 174.083476 335.476295 
L 179.826186 335.476295 
L 185.568896 335.476295 
L 191.311606 335.476295 
L 197.054316 335.476295 
L 202.797026 335.476295 
L 208.539736 335.476295 
L 214.282446 335.476295 
L 220.025157 335.476295 
L 225.767867 335.476295 
L 231.510577 335.476295 
L 237.253287 335.476295 
L 242.995997 335.476295 
L 248.738707 335.476295 
L 254.481417 335.476295 
L 260.224127 335.476295 
L 265.966837 335.476295 
L 271.709548 335.476295 
L 277.452258 335.476295 
L 283.194968 335.476295 
L 288.937678 335.476295 
L 294.680388 335.476295 
L 300.423098 335.476295 
L 306.165808 335.476295 
L 311.908518 335.358023 
L 317.651229 335.476295 
L 323.393939 335.476295 
L 329.136649 335.476295 
L 334.879359 335.476295 
L 340.622069 335.476295 
L 346.364779 335.476295 
L 352.107489 335.476295 
L 357.850199 335.476295 
L 363.59291 335.358023 
L 369.33562 335.476295 
L 375.07833 335.476295 
L 380.82104 335.476295 
L 386.56375 335.476295 
L 392.30646 335.358023 
L 398.04917 335.476295 
L 403.79188 335.476295 
L 409.53459 335.358023 
L 415.277301 335.476295 
L 421.020011 335.476295 
L 426.762721 335.476295 
L 432.505431 335.476295 
L 438.248141 335.476295 
L 443.990851 335.476295 
L 449.733561 335.476295 
L 455.476271 335.476295 
L 461.218982 335.476295 
L 466.961692 335.358023 
L 472.704402 335.476295 
L 478.447112 335.476295 
L 484.189822 335.476295 
L 489.932532 335.476295 
L 495.675242 335.476295 
L 501.417952 335.476295 
L 507.160663 335.476295 
L 512.903373 335.476295 
L 518.646083 335.476295 
L 524.388793 335.476295 
L 530.131503 335.476295 
L 535.874213 335.476295 
L 541.616923 335.476295 
L 547.359633 335.476295 
L 553.102343 335.476295 
L 558.845054 335.476295 
L 564.587764 335.476295 
L 570.330474 335.476295 
L 576.073184 335.476295 
L 581.815894 335.476295 
L 587.558604 335.476295 
L 593.301314 335.476295 
L 599.044024 335.476295 
L 604.786735 335.476295 
L 610.529445 335.476295 
L 616.272155 335.476295 
L 622.014865 335.476295 
L 627.757575 335.476295 
L 633.500285 335.476295 
L 639.242995 335.476295 
L 644.985705 335.476295 
L 650.728416 335.476295 
L 656.471126 335.476295 
L 662.213836 335.476295 
L 667.956546 335.476295 
L 673.699256 335.476295 
L 679.441966 335.476295 
L 685.184676 335.476295 
L 690.927386 335.476295 
" clip-path="url(#paf67cc432b)" style="fill: none; stroke: #348abd; stroke-opacity: 0; stroke-width: 2; stroke-linecap: square"/>
   </g>
   <g id="line2d_33">
    <path d="M 82.200114 327.55204 
L 87.942824 327.788585 
L 93.685534 324.950045 
L 99.428244 324.003866 
L 105.170954 323.057686 
L 110.913664 324.950045 
L 116.656374 323.649048 
L 122.399084 322.348051 
L 128.141795 323.530776 
L 133.884505 323.057686 
L 139.627215 323.294231 
L 145.369925 323.175958 
L 151.112635 324.003866 
L 156.855345 323.057686 
L 162.598055 322.821141 
L 168.340765 324.358683 
L 174.083476 323.294231 
L 179.826186 323.530776 
L 185.568896 322.702868 
L 191.311606 324.122138 
L 197.054316 323.175958 
L 202.797026 322.229778 
L 208.539736 324.358683 
L 214.282446 322.821141 
L 220.025157 324.476955 
L 225.767867 323.294231 
L 231.510577 324.358683 
L 237.253287 322.939413 
L 242.995997 322.229778 
L 248.738707 323.649048 
L 254.481417 323.412503 
L 260.224127 324.122138 
L 265.966837 323.294231 
L 271.709548 324.24041 
L 277.452258 323.767321 
L 283.194968 322.229778 
L 288.937678 324.24041 
L 294.680388 323.294231 
L 300.423098 324.358683 
L 306.165808 323.412503 
L 311.908518 324.003866 
L 317.651229 322.821141 
L 323.393939 322.466323 
L 329.136649 324.003866 
L 334.879359 323.057686 
L 340.622069 323.885593 
L 346.364779 322.939413 
L 352.107489 324.358683 
L 357.850199 323.649048 
L 363.59291 321.993233 
L 369.33562 323.767321 
L 375.07833 323.057686 
L 380.82104 323.767321 
L 386.56375 323.649048 
L 392.30646 324.950045 
L 398.04917 323.649048 
L 403.79188 322.702868 
L 409.53459 324.003866 
L 415.277301 323.649048 
L 421.020011 324.358683 
L 426.762721 324.122138 
L 432.505431 324.003866 
L 438.248141 324.24041 
L 443.990851 322.466323 
L 449.733561 325.304863 
L 455.476271 323.649048 
L 461.218982 324.476955 
L 466.961692 323.885593 
L 472.704402 323.885593 
L 478.447112 324.595228 
L 484.189822 323.530776 
L 489.932532 324.24041 
L 495.675242 324.358683 
L 501.417952 324.950045 
L 507.160663 323.530776 
L 512.903373 324.358683 
L 518.646083 324.122138 
L 524.388793 323.530776 
L 530.131503 325.304863 
L 535.874213 324.950045 
L 541.616923 324.595228 
L 547.359633 324.950045 
L 553.102343 326.13277 
L 558.845054 325.068318 
L 564.587764 323.530776 
L 570.330474 325.896225 
L 576.073184 325.423135 
L 581.815894 325.18659 
L 587.558604 324.595228 
L 593.301314 325.304863 
L 599.044024 325.18659 
L 604.786735 324.950045 
L 610.529445 326.014498 
L 616.272155 325.18659 
L 622.014865 325.896225 
L 627.757575 324.950045 
L 633.500285 326.13277 
L 639.242995 325.541408 
L 644.985705 325.18659 
L 650.728416 326.251043 
L 656.471126 325.896225 
L 662.213836 326.60586 
L 667.956546 326.13277 
L 673.699256 326.251043 
L 679.441966 326.842405 
L 685.184676 326.13277 
L 690.927386 326.960677 
" clip-path="url(#paf67cc432b)" style="fill: none; stroke: #348abd; stroke-opacity: 0; stroke-width: 2; stroke-linecap: square"/>
   </g>
   <g id="patch_3">
    <path d="M 51.76375 350.30175 
L 51.76375 24.14175 
" style="fill: none; stroke: #bcbcbc; stroke-width: 0.8; stroke-linejoin: miter; stroke-linecap: square"/>
   </g>
   <g id="patch_4">
    <path d="M 721.36375 350.30175 
L 721.36375 24.14175 
" style="fill: none; stroke: #bcbcbc; stroke-width: 0.8; stroke-linejoin: miter; stroke-linecap: square"/>
   </g>
   <g id="patch_5">
    <path d="M 51.76375 350.30175 
L 721.36375 350.30175 
" style="fill: none; stroke: #bcbcbc; stroke-width: 0.8; stroke-linejoin: miter; stroke-linecap: square"/>
   </g>
   <g id="patch_6">
    <path d="M 51.76375 24.14175 
L 721.36375 24.14175 
" style="fill: none; stroke: #bcbcbc; stroke-width: 0.8; stroke-linejoin: miter; stroke-linecap: square"/>
   </g>
   <g id="text_17">
    <!-- Prior HDI Sales Model -->
    <g transform="translate(309.292 18.14175)scale(0.144 -0.144)">
     <defs>
      <path id="DejaVuSans-50" d="M 1259 4147 
L 1259 2394 
L 2053 2394 
Q 2494 2394 2734 2622 
Q 2975 2850 2975 3272 
Q 2975 3691 2734 3919 
Q 2494 4147 2053 4147 
L 1259 4147 
z
M 628 4666 
L 2053 4666 
Q 2838 4666 3239 4311 
Q 3641 3956 3641 3272 
Q 3641 2581 3239 2228 
Q 2838 1875 2053 1875 
L 1259 1875 
L 1259 0 
L 628 0 
L 628 4666 
z
" transform="scale(0.015625)"/>
      <path id="DejaVuSans-72" d="M 2631 2963 
Q 2534 3019 2420 3045 
Q 2306 3072 2169 3072 
Q 1681 3072 1420 2755 
Q 1159 2438 1159 1844 
L 1159 0 
L 581 0 
L 581 3500 
L 1159 3500 
L 1159 2956 
Q 1341 3275 1631 3429 
Q 1922 3584 2338 3584 
Q 2397 3584 2469 3576 
Q 2541 3569 2628 3553 
L 2631 2963 
z
" transform="scale(0.015625)"/>
      <path id="DejaVuSans-69" d="M 603 3500 
L 1178 3500 
L 1178 0 
L 603 0 
L 603 3500 
z
M 603 4863 
L 1178 4863 
L 1178 4134 
L 603 4134 
L 603 4863 
z
" transform="scale(0.015625)"/>
      <path id="DejaVuSans-6f" d="M 1959 3097 
Q 1497 3097 1228 2736 
Q 959 2375 959 1747 
Q 959 1119 1226 758 
Q 1494 397 1959 397 
Q 2419 397 2687 759 
Q 2956 1122 2956 1747 
Q 2956 2369 2687 2733 
Q 2419 3097 1959 3097 
z
M 1959 3584 
Q 2709 3584 3137 3096 
Q 3566 2609 3566 1747 
Q 3566 888 3137 398 
Q 2709 -91 1959 -91 
Q 1206 -91 779 398 
Q 353 888 353 1747 
Q 353 2609 779 3096 
Q 1206 3584 1959 3584 
z
" transform="scale(0.015625)"/>
      <path id="DejaVuSans-20" transform="scale(0.015625)"/>
      <path id="DejaVuSans-48" d="M 628 4666 
L 1259 4666 
L 1259 2753 
L 3553 2753 
L 3553 4666 
L 4184 4666 
L 4184 0 
L 3553 0 
L 3553 2222 
L 1259 2222 
L 1259 0 
L 628 0 
L 628 4666 
z
" transform="scale(0.015625)"/>
      <path id="DejaVuSans-44" d="M 1259 4147 
L 1259 519 
L 2022 519 
Q 2988 519 3436 956 
Q 3884 1394 3884 2338 
Q 3884 3275 3436 3711 
Q 2988 4147 2022 4147 
L 1259 4147 
z
M 628 4666 
L 1925 4666 
Q 3281 4666 3915 4102 
Q 4550 3538 4550 2338 
Q 4550 1131 3912 565 
Q 3275 0 1925 0 
L 628 0 
L 628 4666 
z
" transform="scale(0.015625)"/>
      <path id="DejaVuSans-49" d="M 628 4666 
L 1259 4666 
L 1259 0 
L 628 0 
L 628 4666 
z
" transform="scale(0.015625)"/>
      <path id="DejaVuSans-53" d="M 3425 4513 
L 3425 3897 
Q 3066 4069 2747 4153 
Q 2428 4238 2131 4238 
Q 1616 4238 1336 4038 
Q 1056 3838 1056 3469 
Q 1056 3159 1242 3001 
Q 1428 2844 1947 2747 
L 2328 2669 
Q 3034 2534 3370 2195 
Q 3706 1856 3706 1288 
Q 3706 609 3251 259 
Q 2797 -91 1919 -91 
Q 1588 -91 1214 -16 
Q 841 59 441 206 
L 441 856 
Q 825 641 1194 531 
Q 1563 422 1919 422 
Q 2459 422 2753 634 
Q 3047 847 3047 1241 
Q 3047 1584 2836 1778 
Q 2625 1972 2144 2069 
L 1759 2144 
Q 1053 2284 737 2584 
Q 422 2884 422 3419 
Q 422 4038 858 4394 
Q 1294 4750 2059 4750 
Q 2388 4750 2728 4690 
Q 3069 4631 3425 4513 
z
" transform="scale(0.015625)"/>
      <path id="DejaVuSans-4d" d="M 628 4666 
L 1569 4666 
L 2759 1491 
L 3956 4666 
L 4897 4666 
L 4897 0 
L 4281 0 
L 4281 4097 
L 3078 897 
L 2444 897 
L 1241 4097 
L 1241 0 
L 628 0 
L 628 4666 
z
" transform="scale(0.015625)"/>
     </defs>
     <use xlink:href="#DejaVuSans-50"/>
     <use xlink:href="#DejaVuSans-72" x="58.552734"/>
     <use xlink:href="#DejaVuSans-69" x="99.666016"/>
     <use xlink:href="#DejaVuSans-6f" x="127.449219"/>
     <use xlink:href="#DejaVuSans-72" x="188.630859"/>
     <use xlink:href="#DejaVuSans-20" x="229.744141"/>
     <use xlink:href="#DejaVuSans-48" x="261.53125"/>
     <use xlink:href="#DejaVuSans-44" x="336.726562"/>
     <use xlink:href="#DejaVuSans-49" x="413.728516"/>
     <use xlink:href="#DejaVuSans-20" x="443.220703"/>
     <use xlink:href="#DejaVuSans-53" x="475.007812"/>
     <use xlink:href="#DejaVuSans-61" x="538.484375"/>
     <use xlink:href="#DejaVuSans-6c" x="599.763672"/>
     <use xlink:href="#DejaVuSans-65" x="627.546875"/>
     <use xlink:href="#DejaVuSans-73" x="689.070312"/>
     <use xlink:href="#DejaVuSans-20" x="741.169922"/>
     <use xlink:href="#DejaVuSans-4d" x="772.957031"/>
     <use xlink:href="#DejaVuSans-6f" x="859.236328"/>
     <use xlink:href="#DejaVuSans-64" x="920.417969"/>
     <use xlink:href="#DejaVuSans-65" x="983.894531"/>
     <use xlink:href="#DejaVuSans-6c" x="1045.417969"/>
    </g>
   </g>
   <g id="legend_1">
    <g id="patch_7">
     <path d="M 58.76375 76.176125 
L 150.498125 76.176125 
Q 152.498125 76.176125 152.498125 74.176125 
L 152.498125 31.14175 
Q 152.498125 29.14175 150.498125 29.14175 
L 58.76375 29.14175 
Q 56.76375 29.14175 56.76375 31.14175 
L 56.76375 74.176125 
Q 56.76375 76.176125 58.76375 76.176125 
z
" style="fill: #eeeeee; opacity: 0.8; stroke: #cccccc; stroke-width: 0.5; stroke-linejoin: miter"/>
    </g>
    <g id="line2d_34">
     <path d="M 60.76375 37.240187 
L 70.76375 37.240187 
L 80.76375 37.240187 
" style="fill: none; stroke: #000000; stroke-opacity: 0.8; stroke-width: 2; stroke-linecap: square"/>
     <g>
      <use xlink:href="#m687d88eda1" x="70.76375" y="37.240187" style="fill-opacity: 0.8; stroke: #000000; stroke-opacity: 0.8; stroke-width: 0.75"/>
     </g>
    </g>
    <g id="text_18">
     <!-- sales (train) -->
     <g transform="translate(88.76375 40.740187)scale(0.1 -0.1)">
      <defs>
       <path id="DejaVuSans-28" d="M 1984 4856 
Q 1566 4138 1362 3434 
Q 1159 2731 1159 2009 
Q 1159 1288 1364 580 
Q 1569 -128 1984 -844 
L 1484 -844 
Q 1016 -109 783 600 
Q 550 1309 550 2009 
Q 550 2706 781 3412 
Q 1013 4119 1484 4856 
L 1984 4856 
z
" transform="scale(0.015625)"/>
       <path id="DejaVuSans-6e" d="M 3513 2113 
L 3513 0 
L 2938 0 
L 2938 2094 
Q 2938 2591 2744 2837 
Q 2550 3084 2163 3084 
Q 1697 3084 1428 2787 
Q 1159 2491 1159 1978 
L 1159 0 
L 581 0 
L 581 3500 
L 1159 3500 
L 1159 2956 
Q 1366 3272 1645 3428 
Q 1925 3584 2291 3584 
Q 2894 3584 3203 3211 
Q 3513 2838 3513 2113 
z
" transform="scale(0.015625)"/>
       <path id="DejaVuSans-29" d="M 513 4856 
L 1013 4856 
Q 1481 4119 1714 3412 
Q 1947 2706 1947 2009 
Q 1947 1309 1714 600 
Q 1481 -109 1013 -844 
L 513 -844 
Q 928 -128 1133 580 
Q 1338 1288 1338 2009 
Q 1338 2731 1133 3434 
Q 928 4138 513 4856 
z
" transform="scale(0.015625)"/>
      </defs>
      <use xlink:href="#DejaVuSans-73"/>
      <use xlink:href="#DejaVuSans-61" x="52.099609"/>
      <use xlink:href="#DejaVuSans-6c" x="113.378906"/>
      <use xlink:href="#DejaVuSans-65" x="141.162109"/>
      <use xlink:href="#DejaVuSans-73" x="202.685547"/>
      <use xlink:href="#DejaVuSans-20" x="254.785156"/>
      <use xlink:href="#DejaVuSans-28" x="286.572266"/>
      <use xlink:href="#DejaVuSans-74" x="325.585938"/>
      <use xlink:href="#DejaVuSans-72" x="364.794922"/>
      <use xlink:href="#DejaVuSans-61" x="405.908203"/>
      <use xlink:href="#DejaVuSans-69" x="467.1875"/>
      <use xlink:href="#DejaVuSans-6e" x="494.970703"/>
      <use xlink:href="#DejaVuSans-29" x="558.349609"/>
     </g>
    </g>
    <g id="patch_8">
     <path d="M 60.76375 55.418313 
L 80.76375 55.418313 
L 80.76375 48.418313 
L 60.76375 48.418313 
z
" style="fill: #348abd; fill-opacity: 0.3; stroke: #348abd; stroke-opacity: 0.3; stroke-width: 0.5; stroke-linejoin: miter"/>
    </g>
    <g id="text_19">
     <!-- HDI 50% -->
     <g transform="translate(88.76375 55.418313)scale(0.1 -0.1)">
      <defs>
       <path id="DejaVuSans-25" d="M 4653 2053 
Q 4381 2053 4226 1822 
Q 4072 1591 4072 1178 
Q 4072 772 4226 539 
Q 4381 306 4653 306 
Q 4919 306 5073 539 
Q 5228 772 5228 1178 
Q 5228 1588 5073 1820 
Q 4919 2053 4653 2053 
z
M 4653 2450 
Q 5147 2450 5437 2106 
Q 5728 1763 5728 1178 
Q 5728 594 5436 251 
Q 5144 -91 4653 -91 
Q 4153 -91 3862 251 
Q 3572 594 3572 1178 
Q 3572 1766 3864 2108 
Q 4156 2450 4653 2450 
z
M 1428 4353 
Q 1159 4353 1004 4120 
Q 850 3888 850 3481 
Q 850 3069 1003 2837 
Q 1156 2606 1428 2606 
Q 1700 2606 1854 2837 
Q 2009 3069 2009 3481 
Q 2009 3884 1853 4118 
Q 1697 4353 1428 4353 
z
M 4250 4750 
L 4750 4750 
L 1831 -91 
L 1331 -91 
L 4250 4750 
z
M 1428 4750 
Q 1922 4750 2215 4408 
Q 2509 4066 2509 3481 
Q 2509 2891 2217 2550 
Q 1925 2209 1428 2209 
Q 931 2209 642 2551 
Q 353 2894 353 3481 
Q 353 4063 643 4406 
Q 934 4750 1428 4750 
z
" transform="scale(0.015625)"/>
      </defs>
      <use xlink:href="#DejaVuSans-48"/>
      <use xlink:href="#DejaVuSans-44" x="75.195312"/>
      <use xlink:href="#DejaVuSans-49" x="152.197266"/>
      <use xlink:href="#DejaVuSans-20" x="181.689453"/>
      <use xlink:href="#DejaVuSans-35" x="213.476562"/>
      <use xlink:href="#DejaVuSans-30" x="277.099609"/>
      <use xlink:href="#DejaVuSans-25" x="340.722656"/>
     </g>
    </g>
    <g id="patch_9">
     <path d="M 60.76375 70.096437 
L 80.76375 70.096437 
L 80.76375 63.096437 
L 60.76375 63.096437 
z
" style="fill: #348abd; fill-opacity: 0.5; stroke: #348abd; stroke-opacity: 0.5; stroke-width: 0.5; stroke-linejoin: miter"/>
    </g>
    <g id="text_20">
     <!-- HDI 95% -->
     <g transform="translate(88.76375 70.096437)scale(0.1 -0.1)">
      <use xlink:href="#DejaVuSans-48"/>
      <use xlink:href="#DejaVuSans-44" x="75.195312"/>
      <use xlink:href="#DejaVuSans-49" x="152.197266"/>
      <use xlink:href="#DejaVuSans-20" x="181.689453"/>
      <use xlink:href="#DejaVuSans-39" x="213.476562"/>
      <use xlink:href="#DejaVuSans-35" x="277.099609"/>
      <use xlink:href="#DejaVuSans-25" x="340.722656"/>
     </g>
    </g>
   </g>
  </g>
 </g>
 <defs>
  <clipPath id="paf67cc432b">
   <rect x="51.76375" y="24.14175" width="669.6" height="326.16"/>
  </clipPath>
 </defs>
</svg>
